<svg width="396" height="245" viewBox="0 0 396 245" fill="none" xmlns="http://www.w3.org/2000/svg">
<path d="M12.0416 25.3767C11.6015 25.3767 11.2126 25.301 10.8749 25.1495C10.5393 24.9981 10.2763 24.7893 10.0859 24.5232C9.89556 24.2572 9.80141 23.9543 9.80346 23.6145C9.80141 23.3484 9.85565 23.1038 9.96617 22.8808C10.0787 22.6556 10.2312 22.4683 10.4236 22.3189C10.616 22.1675 10.8309 22.0713 11.0683 22.0303V21.9935C10.7552 21.9178 10.5045 21.7499 10.3162 21.49C10.1279 21.2301 10.0347 20.9312 10.0368 20.5935C10.0347 20.2722 10.1197 19.9857 10.2916 19.7339C10.4656 19.4801 10.704 19.2806 11.0069 19.1352C11.3098 18.9899 11.6547 18.9173 12.0416 18.9173C12.4243 18.9173 12.7661 18.991 13.067 19.1383C13.3699 19.2836 13.6083 19.4832 13.7823 19.737C13.9563 19.9887 14.0443 20.2742 14.0463 20.5935C14.0443 20.9312 13.9481 21.2301 13.7577 21.49C13.5674 21.7499 13.3197 21.9178 13.0148 21.9935V22.0303C13.2501 22.0713 13.462 22.1675 13.6503 22.3189C13.8406 22.4683 13.9921 22.6556 14.1047 22.8808C14.2193 23.1038 14.2776 23.3484 14.2796 23.6145C14.2776 23.9543 14.1814 24.2572 13.9911 24.5232C13.8007 24.7893 13.5367 24.9981 13.199 25.1495C12.8633 25.301 12.4775 25.3767 12.0416 25.3767ZM12.0416 24.6C12.3015 24.6 12.5266 24.557 12.717 24.4711C12.9073 24.383 13.0547 24.2613 13.1591 24.1057C13.2634 23.9481 13.3167 23.7639 13.3187 23.5531C13.3167 23.3341 13.2594 23.1407 13.1468 22.9729C13.0363 22.805 12.8858 22.673 12.6955 22.5768C12.5051 22.4806 12.2872 22.4325 12.0416 22.4325C11.7939 22.4325 11.5739 22.4806 11.3815 22.5768C11.1891 22.673 11.0376 22.805 10.9271 22.9729C10.8166 23.1407 10.7623 23.3341 10.7644 23.5531C10.7623 23.7639 10.8125 23.9481 10.9148 24.1057C11.0192 24.2613 11.1676 24.383 11.36 24.4711C11.5524 24.557 11.7796 24.6 12.0416 24.6ZM12.0416 21.6742C12.2503 21.6742 12.4355 21.6323 12.5972 21.5483C12.7589 21.4644 12.8858 21.3478 12.9779 21.1983C13.0721 21.0489 13.1202 20.8739 13.1222 20.6734C13.1202 20.4769 13.0731 20.3049 12.981 20.1576C12.8909 20.0102 12.7651 19.8966 12.6034 19.8168C12.4417 19.7349 12.2544 19.694 12.0416 19.694C11.8246 19.694 11.6343 19.7349 11.4705 19.8168C11.3088 19.8966 11.183 20.0102 11.0929 20.1576C11.0028 20.3049 10.9588 20.4769 10.9609 20.6734C10.9588 20.8739 11.0039 21.0489 11.096 21.1983C11.1881 21.3478 11.315 21.4644 11.4767 21.5483C11.6404 21.6323 11.8287 21.6742 12.0416 21.6742ZM17.5685 25.3952C17.0834 25.3931 16.6689 25.2652 16.3251 25.0114C15.9812 24.7576 15.7182 24.3882 15.5361 23.9031C15.3539 23.418 15.2628 22.8337 15.2628 22.1501C15.2628 21.4685 15.3539 20.8862 15.5361 20.4032C15.7203 19.9202 15.9843 19.5518 16.3282 19.298C16.6741 19.0442 17.0875 18.9173 17.5685 18.9173C18.0495 18.9173 18.4619 19.0452 18.8057 19.301C19.1496 19.5548 19.4126 19.9232 19.5947 20.4063C19.7789 20.8872 19.871 21.4685 19.871 22.1501C19.871 22.8357 19.78 23.4211 19.5978 23.9062C19.4156 24.3892 19.1526 24.7586 18.8088 25.0145C18.4649 25.2683 18.0515 25.3952 17.5685 25.3952ZM17.5685 24.5754C17.9942 24.5754 18.3268 24.3677 18.5663 23.9522C18.8078 23.5367 18.9285 22.936 18.9285 22.1501C18.9285 21.6282 18.8733 21.1871 18.7627 20.8269C18.6543 20.4646 18.4977 20.1903 18.293 20.0041C18.0904 19.8158 17.8489 19.7216 17.5685 19.7216C17.1448 19.7216 16.8122 19.9304 16.5707 20.3479C16.3292 20.7655 16.2074 21.3662 16.2054 22.1501C16.2054 22.674 16.2596 23.1171 16.3681 23.4794C16.4786 23.8396 16.6352 24.1129 16.8378 24.2991C17.0404 24.4833 17.284 24.5754 17.5685 24.5754ZM23.1491 25.3952C22.6641 25.3931 22.2496 25.2652 21.9057 25.0114C21.5619 24.7576 21.2989 24.3882 21.1167 23.9031C20.9346 23.418 20.8435 22.8337 20.8435 22.1501C20.8435 21.4685 20.9346 20.8862 21.1167 20.4032C21.3009 19.9202 21.565 19.5518 21.9088 19.298C22.2547 19.0442 22.6681 18.9173 23.1491 18.9173C23.6301 18.9173 24.0425 19.0452 24.3864 19.301C24.7302 19.5548 24.9932 19.9232 25.1754 20.4063C25.3596 20.8872 25.4517 21.4685 25.4517 22.1501C25.4517 22.8357 25.3606 23.4211 25.1785 23.9062C24.9963 24.3892 24.7333 24.7586 24.3894 25.0145C24.0456 25.2683 23.6322 25.3952 23.1491 25.3952ZM23.1491 24.5754C23.5748 24.5754 23.9074 24.3677 24.1469 23.9522C24.3884 23.5367 24.5092 22.936 24.5092 22.1501C24.5092 21.6282 24.4539 21.1871 24.3434 20.8269C24.2349 20.4646 24.0783 20.1903 23.8737 20.0041C23.671 19.8158 23.4295 19.7216 23.1491 19.7216C22.7255 19.7216 22.3929 19.9304 22.1514 20.3479C21.9098 20.7655 21.7881 21.3662 21.786 22.1501C21.786 22.674 21.8402 23.1171 21.9487 23.4794C22.0592 23.8396 22.2158 24.1129 22.4184 24.2991C22.6211 24.4833 22.8646 24.5754 23.1491 24.5754Z" fill="#707071"/>
<line x1="30.2588" y1="22.0206" x2="386.458" y2="22.0206" stroke="#E0E1E3" stroke-width="0.540335" stroke-dasharray="0.54 0.54"/>
<path d="M12.0784 87.4086C11.798 87.4045 11.5217 87.3533 11.2495 87.2551C10.9793 87.1568 10.7337 86.9931 10.5126 86.7639C10.2916 86.5346 10.1146 86.2266 9.98152 85.8398C9.85053 85.4529 9.78504 84.9699 9.78504 84.3907C9.78504 83.8422 9.83928 83.3551 9.94775 82.9293C10.0583 82.5036 10.2169 82.1444 10.4236 81.8517C10.6303 81.557 10.88 81.3329 11.1727 81.1794C11.4654 81.0259 11.7939 80.9491 12.1582 80.9491C12.5328 80.9491 12.8654 81.0228 13.156 81.1702C13.4466 81.3175 13.682 81.5212 13.8621 81.7811C14.0443 82.0411 14.1599 82.3368 14.209 82.6684H13.2727C13.2092 82.4064 13.0833 82.1925 12.895 82.0267C12.7067 81.8609 12.4611 81.7781 12.1582 81.7781C11.6977 81.7781 11.3385 81.9786 11.0806 82.3798C10.8248 82.7809 10.6958 83.3387 10.6938 84.053H10.7398C10.8483 83.8749 10.9813 83.7235 11.1389 83.5986C11.2986 83.4717 11.4767 83.3745 11.6731 83.307C11.8717 83.2374 12.0804 83.2026 12.2994 83.2026C12.6638 83.2026 12.9933 83.2916 13.288 83.4697C13.5848 83.6457 13.8212 83.8893 13.9972 84.2004C14.1732 84.5115 14.2612 84.8676 14.2612 85.2687C14.2612 85.6699 14.1701 86.0332 13.988 86.3586C13.8079 86.6841 13.5541 86.9419 13.2266 87.1323C12.8991 87.3206 12.5164 87.4127 12.0784 87.4086ZM12.0753 86.6104C12.3168 86.6104 12.5328 86.551 12.7231 86.4323C12.9135 86.3136 13.0639 86.154 13.1744 85.9534C13.2849 85.7528 13.3402 85.5287 13.3402 85.281C13.3402 85.0395 13.286 84.8195 13.1775 84.621C13.0711 84.4224 12.9237 84.2648 12.7354 84.1482C12.5491 84.0315 12.3363 83.9732 12.0968 83.9732C11.9147 83.9732 11.7458 84.008 11.5902 84.0775C11.4367 84.1471 11.3017 84.2433 11.185 84.3661C11.0683 84.4889 10.9762 84.6302 10.9087 84.7898C10.8432 84.9474 10.8104 85.1142 10.8104 85.2902C10.8104 85.5256 10.8647 85.7436 10.9732 85.9442C11.0837 86.1447 11.2341 86.3064 11.4245 86.4292C11.6169 86.55 11.8338 86.6104 12.0753 86.6104ZM17.5685 87.427C17.0834 87.425 16.6689 87.297 16.3251 87.0433C15.9812 86.7895 15.7182 86.42 15.5361 85.935C15.3539 85.4499 15.2628 84.8655 15.2628 84.1819C15.2628 83.5004 15.3539 82.9181 15.5361 82.4351C15.7203 81.952 15.9843 81.5836 16.3282 81.3298C16.6741 81.076 17.0875 80.9491 17.5685 80.9491C18.0495 80.9491 18.4619 81.0771 18.8057 81.3329C19.1496 81.5867 19.4126 81.9551 19.5947 82.4381C19.7789 82.9191 19.871 83.5004 19.871 84.1819C19.871 84.8676 19.78 85.4529 19.5978 85.938C19.4156 86.421 19.1526 86.7905 18.8088 87.0463C18.4649 87.3001 18.0515 87.427 17.5685 87.427ZM17.5685 86.6073C17.9942 86.6073 18.3268 86.3996 18.5663 85.9841C18.8078 85.5686 18.9285 84.9679 18.9285 84.1819C18.9285 83.66 18.8733 83.2189 18.7627 82.8587C18.6543 82.4965 18.4977 82.2222 18.293 82.0359C18.0904 81.8476 17.8489 81.7535 17.5685 81.7535C17.1448 81.7535 16.8122 81.9623 16.5707 82.3798C16.3292 82.7973 16.2074 83.398 16.2054 84.1819C16.2054 84.7059 16.2596 85.149 16.3681 85.5113C16.4786 85.8715 16.6352 86.1447 16.8378 86.331C17.0404 86.5152 17.284 86.6073 17.5685 86.6073ZM23.1491 87.427C22.6641 87.425 22.2496 87.297 21.9057 87.0433C21.5619 86.7895 21.2989 86.42 21.1167 85.935C20.9346 85.4499 20.8435 84.8655 20.8435 84.1819C20.8435 83.5004 20.9346 82.9181 21.1167 82.4351C21.3009 81.952 21.565 81.5836 21.9088 81.3298C22.2547 81.076 22.6681 80.9491 23.1491 80.9491C23.6301 80.9491 24.0425 81.0771 24.3864 81.3329C24.7302 81.5867 24.9932 81.9551 25.1754 82.4381C25.3596 82.9191 25.4517 83.5004 25.4517 84.1819C25.4517 84.8676 25.3606 85.4529 25.1785 85.938C24.9963 86.421 24.7333 86.7905 24.3894 87.0463C24.0456 87.3001 23.6322 87.427 23.1491 87.427ZM23.1491 86.6073C23.5748 86.6073 23.9074 86.3996 24.1469 85.9841C24.3884 85.5686 24.5092 84.9679 24.5092 84.1819C24.5092 83.66 24.4539 83.2189 24.3434 82.8587C24.2349 82.4965 24.0783 82.2222 23.8737 82.0359C23.671 81.8476 23.4295 81.7535 23.1491 81.7535C22.7255 81.7535 22.3929 81.9623 22.1513 82.3798C21.9098 82.7973 21.7881 83.398 21.786 84.1819C21.786 84.7059 21.8402 85.149 21.9487 85.5113C22.0592 85.8715 22.2158 86.1447 22.4184 86.331C22.6211 86.5152 22.8646 86.6073 23.1491 86.6073Z" fill="#707071"/>
<line x1="30.2588" y1="84.0525" x2="386.458" y2="84.0525" stroke="#E0E1E3" stroke-width="0.540335" stroke-dasharray="0.54 0.54"/>
<path d="M9.30012 148.127V147.359L12.0171 143.067H12.622V144.197H12.2382L10.2948 147.273V147.322H14.0188V148.127H9.30012ZM12.2812 149.355V147.893L12.2873 147.543V143.067H13.1868V149.355H12.2812ZM17.2777 149.459C16.7927 149.457 16.3782 149.329 16.0344 149.075C15.6905 148.821 15.4275 148.452 15.2453 147.967C15.0632 147.482 14.9721 146.898 14.9721 146.214C14.9721 145.532 15.0632 144.95 15.2453 144.467C15.4295 143.984 15.6936 143.616 16.0374 143.362C16.3833 143.108 16.7968 142.981 17.2777 142.981C17.7587 142.981 18.1711 143.109 18.515 143.365C18.8588 143.619 19.1218 143.987 19.304 144.47C19.4882 144.951 19.5803 145.532 19.5803 146.214C19.5803 146.9 19.4892 147.485 19.3071 147.97C19.1249 148.453 18.8619 148.822 18.5181 149.078C18.1742 149.332 17.7608 149.459 17.2777 149.459ZM17.2777 148.639C17.7035 148.639 18.0361 148.432 18.2755 148.016C18.517 147.601 18.6378 147 18.6378 146.214C18.6378 145.692 18.5825 145.251 18.472 144.891C18.3635 144.528 18.207 144.254 18.0023 144.068C17.7997 143.88 17.5581 143.785 17.2777 143.785C16.8541 143.785 16.5215 143.994 16.28 144.412C16.0384 144.829 15.9167 145.43 15.9146 146.214C15.9146 146.738 15.9689 147.181 16.0773 147.543C16.1879 147.903 16.3444 148.177 16.5471 148.363C16.7497 148.547 16.9932 148.639 17.2777 148.639ZM22.8584 149.459C22.3733 149.457 21.9589 149.329 21.615 149.075C21.2712 148.821 21.0082 148.452 20.826 147.967C20.6438 147.482 20.5528 146.898 20.5528 146.214C20.5528 145.532 20.6438 144.95 20.826 144.467C21.0102 143.984 21.2742 143.616 21.6181 143.362C21.964 143.108 22.3774 142.981 22.8584 142.981C23.3394 142.981 23.7518 143.109 24.0956 143.365C24.4395 143.619 24.7025 143.987 24.8846 144.47C25.0689 144.951 25.161 145.532 25.161 146.214C25.161 146.9 25.0699 147.485 24.8877 147.97C24.7056 148.453 24.4426 148.822 24.0987 149.078C23.7549 149.332 23.3414 149.459 22.8584 149.459ZM22.8584 148.639C23.2841 148.639 23.6167 148.432 23.8562 148.016C24.0977 147.601 24.2184 147 24.2184 146.214C24.2184 145.692 24.1632 145.251 24.0527 144.891C23.9442 144.528 23.7876 144.254 23.5829 144.068C23.3803 143.88 23.1388 143.785 22.8584 143.785C22.4347 143.785 22.1021 143.994 21.8606 144.412C21.6191 144.829 21.4973 145.43 21.4953 146.214C21.4953 146.738 21.5495 147.181 21.658 147.543C21.7685 147.903 21.9251 148.177 22.1277 148.363C22.3303 148.547 22.5739 148.639 22.8584 148.639Z" fill="#707071"/>
<line x1="29.968" y1="146.084" x2="386.458" y2="146.084" stroke="#E0E1E3" stroke-width="0.540335" stroke-dasharray="0.54 0.54"/>
<path d="M23.1491 211.491C22.6641 211.489 22.2496 211.361 21.9057 211.107C21.5619 210.853 21.2989 210.484 21.1167 209.999C20.9346 209.514 20.8435 208.93 20.8435 208.246C20.8435 207.564 20.9346 206.982 21.1167 206.499C21.3009 206.016 21.565 205.648 21.9088 205.394C22.2547 205.14 22.6681 205.013 23.1491 205.013C23.6301 205.013 24.0425 205.141 24.3864 205.397C24.7302 205.651 24.9932 206.019 25.1754 206.502C25.3596 206.983 25.4517 207.564 25.4517 208.246C25.4517 208.932 25.3606 209.517 25.1785 210.002C24.9963 210.485 24.7333 210.854 24.3894 211.11C24.0456 211.364 23.6322 211.491 23.1491 211.491ZM23.1491 210.671C23.5748 210.671 23.9074 210.464 24.1469 210.048C24.3884 209.633 24.5092 209.032 24.5092 208.246C24.5092 207.724 24.4539 207.283 24.3434 206.923C24.2349 206.56 24.0783 206.286 23.8737 206.1C23.671 205.912 23.4295 205.817 23.1491 205.817C22.7255 205.817 22.3929 206.026 22.1513 206.444C21.9098 206.861 21.7881 207.462 21.786 208.246C21.786 208.77 21.8402 209.213 21.9487 209.575C22.0592 209.935 22.2158 210.209 22.4184 210.395C22.6211 210.579 22.8646 210.671 23.1491 210.671Z" fill="#707071"/>
<line x1="30.2588" y1="208.116" x2="386.458" y2="208.116" stroke="#E0E1E3" stroke-width="0.540335" stroke-dasharray="0.54 0.54"/>
<path d="M31.3766 225.709V225.022L33.5041 222.817C33.7313 222.578 33.9186 222.368 34.066 222.188C34.2154 222.006 34.3269 221.833 34.4006 221.669C34.4743 221.505 34.5111 221.331 34.5111 221.147C34.5111 220.938 34.462 220.758 34.3638 220.607C34.2655 220.453 34.1315 220.336 33.9616 220.254C33.7917 220.17 33.6003 220.128 33.3875 220.128C33.1623 220.128 32.9659 220.174 32.798 220.266C32.6302 220.358 32.5013 220.488 32.4112 220.656C32.3211 220.824 32.2761 221.02 32.2761 221.246H31.3704C31.3704 220.863 31.4584 220.528 31.6345 220.242C31.8105 219.955 32.052 219.733 32.359 219.575C32.666 219.416 33.015 219.336 33.4059 219.336C33.8009 219.336 34.1489 219.415 34.4497 219.572C34.7527 219.728 34.989 219.941 35.1589 220.211C35.3288 220.479 35.4137 220.782 35.4137 221.12C35.4137 221.353 35.3697 221.581 35.2817 221.804C35.1958 222.027 35.0453 222.276 34.8304 222.55C34.6155 222.823 34.3167 223.153 33.934 223.542L32.6844 224.85V224.896H35.5151V225.709H31.3766ZM38.8676 225.814C38.3825 225.812 37.9681 225.684 37.6242 225.43C37.2804 225.176 37.0174 224.807 36.8352 224.322C36.653 223.837 36.562 223.252 36.562 222.569C36.562 221.887 36.653 221.305 36.8352 220.822C37.0194 220.339 37.2834 219.97 37.6273 219.717C37.9732 219.463 38.3866 219.336 38.8676 219.336C39.3486 219.336 39.761 219.464 40.1048 219.72C40.4487 219.973 40.7117 220.342 40.8938 220.825C41.0781 221.306 41.1702 221.887 41.1702 222.569C41.1702 223.254 41.0791 223.84 40.8969 224.325C40.7148 224.808 40.4518 225.177 40.1079 225.433C39.7641 225.687 39.3506 225.814 38.8676 225.814ZM38.8676 224.994C39.2933 224.994 39.6259 224.786 39.8654 224.371C40.1069 223.955 40.2276 223.355 40.2276 222.569C40.2276 222.047 40.1724 221.606 40.0619 221.246C39.9534 220.883 39.7968 220.609 39.5921 220.423C39.3895 220.234 39.148 220.14 38.8676 220.14C38.4439 220.14 38.1113 220.349 37.8698 220.767C37.6283 221.184 37.5065 221.785 37.5045 222.569C37.5045 223.093 37.5587 223.536 37.6672 223.898C37.7777 224.258 37.9343 224.532 38.1369 224.718C38.3395 224.902 38.5831 224.994 38.8676 224.994ZM42.2593 225.709V225.022L44.3868 222.817C44.614 222.578 44.8013 222.368 44.9487 222.188C45.0981 222.006 45.2096 221.833 45.2833 221.669C45.357 221.505 45.3938 221.331 45.3938 221.147C45.3938 220.938 45.3447 220.758 45.2465 220.607C45.1482 220.453 45.0142 220.336 44.8443 220.254C44.6744 220.17 44.483 220.128 44.2702 220.128C44.045 220.128 43.8486 220.174 43.6807 220.266C43.5129 220.358 43.3839 220.488 43.2939 220.656C43.2038 220.824 43.1588 221.02 43.1588 221.246H42.2531C42.2531 220.863 42.3411 220.528 42.5172 220.242C42.6932 219.955 42.9347 219.733 43.2417 219.575C43.5487 219.416 43.8977 219.336 44.2886 219.336C44.6836 219.336 45.0316 219.415 45.3324 219.572C45.6353 219.728 45.8717 219.941 46.0416 220.211C46.2115 220.479 46.2964 220.782 46.2964 221.12C46.2964 221.353 46.2524 221.581 46.1644 221.804C46.0785 222.027 45.928 222.276 45.7131 222.55C45.4982 222.823 45.1994 223.153 44.8167 223.542L43.5671 224.85V224.896H46.3977V225.709H42.2593ZM47.5613 225.709V225.022L49.6889 222.817C49.9161 222.578 50.1033 222.368 50.2507 222.188C50.4001 222.006 50.5117 221.833 50.5853 221.669C50.659 221.505 50.6959 221.331 50.6959 221.147C50.6959 220.938 50.6468 220.758 50.5485 220.607C50.4503 220.453 50.3162 220.336 50.1463 220.254C49.9764 220.17 49.7851 220.128 49.5722 220.128C49.3471 220.128 49.1506 220.174 48.9828 220.266C48.8149 220.358 48.686 220.488 48.5959 220.656C48.5059 220.824 48.4608 221.02 48.4608 221.246H47.5552C47.5552 220.863 47.6432 220.528 47.8192 220.242C47.9952 219.955 48.2367 219.733 48.5437 219.575C48.8507 219.416 49.1997 219.336 49.5906 219.336C49.9857 219.336 50.3336 219.415 50.6345 219.572C50.9374 219.728 51.1738 219.941 51.3437 220.211C51.5135 220.479 51.5985 220.782 51.5985 221.12C51.5985 221.353 51.5545 221.581 51.4665 221.804C51.3805 222.027 51.2301 222.276 51.0152 222.55C50.8003 222.823 50.5014 223.153 50.1187 223.542L48.8692 224.85V224.896H51.6998V225.709H47.5613Z" fill="#707071"/>
<path d="M93.4744 225.709V225.022L95.602 222.817C95.8292 222.578 96.0165 222.368 96.1638 222.188C96.3133 222.006 96.4248 221.833 96.4985 221.669C96.5722 221.505 96.609 221.331 96.609 221.147C96.609 220.938 96.5599 220.758 96.4616 220.607C96.3634 220.453 96.2293 220.336 96.0595 220.254C95.8896 220.17 95.6982 220.128 95.4854 220.128C95.2602 220.128 95.0637 220.174 94.8959 220.266C94.7281 220.358 94.5991 220.488 94.5091 220.656C94.419 220.824 94.374 221.02 94.374 221.245H93.4683C93.4683 220.863 93.5563 220.528 93.7323 220.241C93.9084 219.955 94.1499 219.733 94.4569 219.575C94.7639 219.416 95.1129 219.336 95.5038 219.336C95.8988 219.336 96.2467 219.415 96.5476 219.572C96.8505 219.728 97.0869 219.941 97.2568 220.211C97.4267 220.479 97.5116 220.782 97.5116 221.12C97.5116 221.353 97.4676 221.581 97.3796 221.804C97.2936 222.027 97.1432 222.276 96.9283 222.55C96.7134 222.822 96.4146 223.153 96.0318 223.542L94.7823 224.85V224.896H97.6129V225.709H93.4744ZM100.965 225.814C100.48 225.812 100.066 225.684 99.7221 225.43C99.3782 225.176 99.1152 224.807 98.9331 224.322C98.7509 223.837 98.6598 223.252 98.6598 222.569C98.6598 221.887 98.7509 221.305 98.9331 220.822C99.1173 220.339 99.3813 219.97 99.7251 219.716C100.071 219.463 100.484 219.336 100.965 219.336C101.446 219.336 101.859 219.464 102.203 219.72C102.547 219.973 102.81 220.342 102.992 220.825C103.176 221.306 103.268 221.887 103.268 222.569C103.268 223.254 103.177 223.84 102.995 224.325C102.813 224.808 102.55 225.177 102.206 225.433C101.862 225.687 101.448 225.814 100.965 225.814ZM100.965 224.994C101.391 224.994 101.724 224.786 101.963 224.371C102.205 223.955 102.326 223.355 102.326 222.569C102.326 222.047 102.27 221.606 102.16 221.245C102.051 220.883 101.895 220.609 101.69 220.423C101.487 220.234 101.246 220.14 100.965 220.14C100.542 220.14 100.209 220.349 99.9677 220.766C99.7262 221.184 99.6044 221.785 99.6023 222.569C99.6023 223.093 99.6566 223.536 99.7651 223.898C99.8756 224.258 100.032 224.531 100.235 224.718C100.437 224.902 100.681 224.994 100.965 224.994ZM104.357 225.709V225.022L106.485 222.817C106.712 222.578 106.899 222.368 107.047 222.188C107.196 222.006 107.307 221.833 107.381 221.669C107.455 221.505 107.492 221.331 107.492 221.147C107.492 220.938 107.443 220.758 107.344 220.607C107.246 220.453 107.112 220.336 106.942 220.254C106.772 220.17 106.581 220.128 106.368 220.128C106.143 220.128 105.946 220.174 105.779 220.266C105.611 220.358 105.482 220.488 105.392 220.656C105.302 220.824 105.257 221.02 105.257 221.245H104.351C104.351 220.863 104.439 220.528 104.615 220.241C104.791 219.955 105.033 219.733 105.34 219.575C105.647 219.416 105.996 219.336 106.386 219.336C106.781 219.336 107.129 219.415 107.43 219.572C107.733 219.728 107.97 219.941 108.139 220.211C108.309 220.479 108.394 220.782 108.394 221.12C108.394 221.353 108.35 221.581 108.262 221.804C108.176 222.027 108.026 222.276 107.811 222.55C107.596 222.822 107.297 223.153 106.915 223.542L105.665 224.85V224.896H108.496V225.709H104.357ZM109.392 224.481V223.714L112.109 219.422H112.714V220.552H112.33L110.387 223.628V223.677H114.111V224.481H109.392ZM112.373 225.709V224.248L112.379 223.898V219.422H113.279V225.709H112.373Z" fill="#707071"/>
<path d="M155.817 225.709V225.022L157.944 222.817C158.172 222.578 158.359 222.368 158.506 222.188C158.656 222.006 158.767 221.833 158.841 221.669C158.915 221.505 158.951 221.331 158.951 221.147C158.951 220.938 158.902 220.758 158.804 220.607C158.706 220.453 158.572 220.336 158.402 220.254C158.232 220.17 158.041 220.128 157.828 220.128C157.603 220.128 157.406 220.174 157.238 220.266C157.071 220.358 156.942 220.488 156.852 220.656C156.761 220.824 156.716 221.02 156.716 221.245H155.811C155.811 220.863 155.899 220.528 156.075 220.241C156.251 219.955 156.492 219.733 156.799 219.575C157.106 219.416 157.455 219.336 157.846 219.336C158.241 219.336 158.589 219.415 158.89 219.572C159.193 219.728 159.429 219.941 159.599 220.211C159.769 220.479 159.854 220.782 159.854 221.12C159.854 221.353 159.81 221.581 159.722 221.804C159.636 222.027 159.486 222.276 159.271 222.55C159.056 222.822 158.757 223.153 158.374 223.542L157.125 224.85V224.896H159.955V225.709H155.817ZM163.308 225.814C162.823 225.812 162.408 225.684 162.065 225.43C161.721 225.176 161.458 224.807 161.276 224.322C161.093 223.837 161.002 223.252 161.002 222.569C161.002 221.887 161.093 221.305 161.276 220.822C161.46 220.339 161.724 219.97 162.068 219.716C162.414 219.463 162.827 219.336 163.308 219.336C163.789 219.336 164.201 219.464 164.545 219.72C164.889 219.973 165.152 220.342 165.334 220.825C165.518 221.306 165.61 221.887 165.61 222.569C165.61 223.254 165.519 223.84 165.337 224.325C165.155 224.808 164.892 225.177 164.548 225.433C164.204 225.687 163.791 225.814 163.308 225.814ZM163.308 224.994C163.734 224.994 164.066 224.786 164.306 224.371C164.547 223.955 164.668 223.355 164.668 222.569C164.668 222.047 164.613 221.606 164.502 221.245C164.394 220.883 164.237 220.609 164.032 220.423C163.83 220.234 163.588 220.14 163.308 220.14C162.884 220.14 162.552 220.349 162.31 220.766C162.069 221.184 161.947 221.785 161.945 222.569C161.945 223.093 161.999 223.536 162.108 223.898C162.218 224.258 162.375 224.531 162.577 224.718C162.78 224.902 163.023 224.994 163.308 224.994ZM166.7 225.709V225.022L168.827 222.817C169.054 222.578 169.242 222.368 169.389 222.188C169.538 222.006 169.65 221.833 169.724 221.669C169.797 221.505 169.834 221.331 169.834 221.147C169.834 220.938 169.785 220.758 169.687 220.607C169.589 220.453 169.455 220.336 169.285 220.254C169.115 220.17 168.923 220.128 168.711 220.128C168.485 220.128 168.289 220.174 168.121 220.266C167.953 220.358 167.824 220.488 167.734 220.656C167.644 220.824 167.599 221.02 167.599 221.245H166.693C166.693 220.863 166.781 220.528 166.957 220.241C167.134 219.955 167.375 219.733 167.682 219.575C167.989 219.416 168.338 219.336 168.729 219.336C169.124 219.336 169.472 219.415 169.773 219.572C170.076 219.728 170.312 219.941 170.482 220.211C170.652 220.479 170.737 220.782 170.737 221.12C170.737 221.353 170.693 221.581 170.605 221.804C170.519 222.027 170.368 222.276 170.153 222.55C169.939 222.822 169.64 223.153 169.257 223.542L168.007 224.85V224.896H170.838V225.709H166.7ZM174.197 225.795C173.916 225.791 173.64 225.74 173.368 225.642C173.098 225.544 172.852 225.38 172.631 225.151C172.41 224.921 172.233 224.613 172.1 224.226C171.969 223.84 171.903 223.357 171.903 222.777C171.903 222.229 171.958 221.742 172.066 221.316C172.177 220.89 172.335 220.531 172.542 220.238C172.749 219.944 172.998 219.72 173.291 219.566C173.584 219.413 173.912 219.336 174.277 219.336C174.651 219.336 174.984 219.409 175.274 219.557C175.565 219.704 175.8 219.908 175.98 220.168C176.163 220.428 176.278 220.723 176.327 221.055H175.391C175.328 220.793 175.202 220.579 175.013 220.413C174.825 220.248 174.58 220.165 174.277 220.165C173.816 220.165 173.457 220.365 173.199 220.766C172.943 221.168 172.814 221.725 172.812 222.44H172.858C172.967 222.262 173.1 222.11 173.257 221.985C173.417 221.858 173.595 221.761 173.792 221.694C173.99 221.624 174.199 221.589 174.418 221.589C174.782 221.589 175.112 221.678 175.406 221.856C175.703 222.032 175.94 222.276 176.116 222.587C176.292 222.898 176.38 223.254 176.38 223.655C176.38 224.057 176.289 224.42 176.106 224.745C175.926 225.071 175.672 225.329 175.345 225.519C175.017 225.707 174.635 225.799 174.197 225.795ZM174.194 224.997C174.435 224.997 174.651 224.938 174.841 224.819C175.032 224.7 175.182 224.541 175.293 224.34C175.403 224.139 175.459 223.915 175.459 223.668C175.459 223.426 175.404 223.206 175.296 223.008C175.189 222.809 175.042 222.651 174.854 222.535C174.668 222.418 174.455 222.36 174.215 222.36C174.033 222.36 173.864 222.395 173.709 222.464C173.555 222.534 173.42 222.63 173.303 222.753C173.187 222.876 173.095 223.017 173.027 223.176C172.962 223.334 172.929 223.501 172.929 223.677C172.929 223.912 172.983 224.13 173.092 224.331C173.202 224.531 173.352 224.693 173.543 224.816C173.735 224.937 173.952 224.997 174.194 224.997Z" fill="#707071"/>
<path d="M218.168 225.709V225.022L220.295 222.817C220.523 222.578 220.71 222.368 220.857 222.188C221.007 222.006 221.118 221.833 221.192 221.669C221.266 221.505 221.302 221.331 221.302 221.147C221.302 220.938 221.253 220.758 221.155 220.607C221.057 220.453 220.923 220.336 220.753 220.254C220.583 220.17 220.392 220.128 220.179 220.128C219.954 220.128 219.757 220.174 219.589 220.266C219.421 220.358 219.293 220.488 219.202 220.656C219.112 220.824 219.067 221.02 219.067 221.245H218.162C218.162 220.863 218.25 220.528 218.426 220.241C218.602 219.955 218.843 219.733 219.15 219.575C219.457 219.416 219.806 219.336 220.197 219.336C220.592 219.336 220.94 219.415 221.241 219.572C221.544 219.728 221.78 219.941 221.95 220.211C222.12 220.479 222.205 220.782 222.205 221.12C222.205 221.353 222.161 221.581 222.073 221.804C221.987 222.027 221.837 222.276 221.622 222.55C221.407 222.822 221.108 223.153 220.725 223.542L219.476 224.85V224.896H222.306V225.709H218.168ZM225.659 225.814C225.174 225.812 224.759 225.684 224.415 225.43C224.072 225.176 223.809 224.807 223.626 224.322C223.444 223.837 223.353 223.252 223.353 222.569C223.353 221.887 223.444 221.305 223.626 220.822C223.811 220.339 224.075 219.97 224.419 219.716C224.764 219.463 225.178 219.336 225.659 219.336C226.14 219.336 226.552 219.464 226.896 219.72C227.24 219.973 227.503 220.342 227.685 220.825C227.869 221.306 227.961 221.887 227.961 222.569C227.961 223.254 227.87 223.84 227.688 224.325C227.506 224.808 227.243 225.177 226.899 225.433C226.555 225.687 226.142 225.814 225.659 225.814ZM225.659 224.994C226.085 224.994 226.417 224.786 226.657 224.371C226.898 223.955 227.019 223.355 227.019 222.569C227.019 222.047 226.964 221.606 226.853 221.245C226.745 220.883 226.588 220.609 226.383 220.423C226.181 220.234 225.939 220.14 225.659 220.14C225.235 220.14 224.903 220.349 224.661 220.766C224.42 221.184 224.298 221.785 224.296 222.569C224.296 223.093 224.35 223.536 224.458 223.898C224.569 224.258 224.726 224.531 224.928 224.718C225.131 224.902 225.374 224.994 225.659 224.994ZM229.051 225.709V225.022L231.178 222.817C231.405 222.578 231.593 222.368 231.74 222.188C231.889 222.006 232.001 221.833 232.075 221.669C232.148 221.505 232.185 221.331 232.185 221.147C232.185 220.938 232.136 220.758 232.038 220.607C231.939 220.453 231.805 220.336 231.636 220.254C231.466 220.17 231.274 220.128 231.061 220.128C230.836 220.128 230.64 220.174 230.472 220.266C230.304 220.358 230.175 220.488 230.085 220.656C229.995 220.824 229.95 221.02 229.95 221.245H229.044C229.044 220.863 229.132 220.528 229.308 220.241C229.484 219.955 229.726 219.733 230.033 219.575C230.34 219.416 230.689 219.336 231.08 219.336C231.475 219.336 231.823 219.415 232.124 219.572C232.427 219.728 232.663 219.941 232.833 220.211C233.003 220.479 233.088 220.782 233.088 221.12C233.088 221.353 233.044 221.581 232.956 221.804C232.87 222.027 232.719 222.276 232.504 222.55C232.289 222.822 231.991 223.153 231.608 223.542L230.358 224.85V224.896H233.189V225.709H229.051ZM236.477 225.795C236.037 225.795 235.648 225.72 235.31 225.568C234.975 225.417 234.712 225.208 234.521 224.942C234.331 224.676 234.237 224.373 234.239 224.033C234.237 223.767 234.291 223.522 234.402 223.299C234.514 223.074 234.667 222.887 234.859 222.737C235.052 222.586 235.266 222.49 235.504 222.449V222.412C235.191 222.336 234.94 222.168 234.752 221.909C234.563 221.649 234.47 221.35 234.472 221.012C234.47 220.691 234.555 220.404 234.727 220.152C234.901 219.899 235.14 219.699 235.442 219.554C235.745 219.408 236.09 219.336 236.477 219.336C236.86 219.336 237.202 219.409 237.502 219.557C237.805 219.702 238.044 219.902 238.218 220.156C238.392 220.407 238.48 220.693 238.482 221.012C238.48 221.35 238.384 221.649 238.193 221.909C238.003 222.168 237.755 222.336 237.45 222.412V222.449C237.686 222.49 237.897 222.586 238.086 222.737C238.276 222.887 238.428 223.074 238.54 223.299C238.655 223.522 238.713 223.767 238.715 224.033C238.713 224.373 238.617 224.676 238.427 224.942C238.236 225.208 237.972 225.417 237.634 225.568C237.299 225.72 236.913 225.795 236.477 225.795ZM236.477 225.019C236.737 225.019 236.962 224.976 237.152 224.89C237.343 224.802 237.49 224.68 237.595 224.524C237.699 224.367 237.752 224.182 237.754 223.972C237.752 223.753 237.695 223.559 237.582 223.391C237.472 223.224 237.321 223.092 237.131 222.995C236.941 222.899 236.723 222.851 236.477 222.851C236.229 222.851 236.009 222.899 235.817 222.995C235.625 223.092 235.473 223.224 235.363 223.391C235.252 223.559 235.198 223.753 235.2 223.972C235.198 224.182 235.248 224.367 235.35 224.524C235.455 224.68 235.603 224.802 235.796 224.89C235.988 224.976 236.215 225.019 236.477 225.019ZM236.477 222.093C236.686 222.093 236.871 222.051 237.033 221.967C237.194 221.883 237.321 221.766 237.413 221.617C237.508 221.467 237.556 221.292 237.558 221.092C237.556 220.895 237.509 220.723 237.417 220.576C237.326 220.429 237.201 220.315 237.039 220.235C236.877 220.153 236.69 220.113 236.477 220.113C236.26 220.113 236.07 220.153 235.906 220.235C235.744 220.315 235.618 220.429 235.528 220.576C235.438 220.723 235.394 220.895 235.396 221.092C235.394 221.292 235.439 221.467 235.531 221.617C235.624 221.766 235.75 221.883 235.912 221.967C236.076 222.051 236.264 222.093 236.477 222.093Z" fill="#707071"/>
<path d="M281.097 225.709V225.022L283.224 222.817C283.451 222.578 283.639 222.368 283.786 222.188C283.935 222.006 284.047 221.833 284.121 221.669C284.194 221.505 284.231 221.331 284.231 221.147C284.231 220.938 284.182 220.758 284.084 220.607C283.986 220.453 283.851 220.336 283.682 220.254C283.512 220.17 283.32 220.128 283.108 220.128C282.882 220.128 282.686 220.174 282.518 220.266C282.35 220.358 282.221 220.488 282.131 220.656C282.041 220.824 281.996 221.02 281.996 221.245H281.09C281.09 220.863 281.178 220.528 281.354 220.241C281.531 219.955 281.772 219.733 282.079 219.575C282.386 219.416 282.735 219.336 283.126 219.336C283.521 219.336 283.869 219.415 284.17 219.572C284.473 219.728 284.709 219.941 284.879 220.211C285.049 220.479 285.134 220.782 285.134 221.12C285.134 221.353 285.09 221.581 285.002 221.804C284.916 222.027 284.765 222.276 284.55 222.55C284.336 222.822 284.037 223.153 283.654 223.542L282.404 224.85V224.896H285.235V225.709H281.097ZM288.588 225.814C288.103 225.812 287.688 225.684 287.344 225.43C287 225.176 286.737 224.807 286.555 224.322C286.373 223.837 286.282 223.252 286.282 222.569C286.282 221.887 286.373 221.305 286.555 220.822C286.739 220.339 287.003 219.97 287.347 219.716C287.693 219.463 288.107 219.336 288.588 219.336C289.069 219.336 289.481 219.464 289.825 219.72C290.169 219.973 290.432 220.342 290.614 220.825C290.798 221.306 290.89 221.887 290.89 222.569C290.89 223.254 290.799 223.84 290.617 224.325C290.435 224.808 290.172 225.177 289.828 225.433C289.484 225.687 289.071 225.814 288.588 225.814ZM288.588 224.994C289.013 224.994 289.346 224.786 289.585 224.371C289.827 223.955 289.948 223.355 289.948 222.569C289.948 222.047 289.892 221.606 289.782 221.245C289.673 220.883 289.517 220.609 289.312 220.423C289.11 220.234 288.868 220.14 288.588 220.14C288.164 220.14 287.831 220.349 287.59 220.766C287.348 221.184 287.227 221.785 287.224 222.569C287.224 223.093 287.279 223.536 287.387 223.898C287.498 224.258 287.654 224.531 287.857 224.718C288.06 224.902 288.303 224.994 288.588 224.994ZM294.168 225.795C293.747 225.795 293.37 225.723 293.038 225.577C292.709 225.432 292.448 225.23 292.256 224.972C292.065 224.713 291.963 224.412 291.949 224.07H292.913C292.925 224.256 292.987 224.418 293.1 224.555C293.214 224.69 293.364 224.794 293.548 224.868C293.732 224.942 293.937 224.979 294.162 224.979C294.41 224.979 294.629 224.936 294.819 224.85C295.012 224.764 295.162 224.644 295.27 224.49C295.379 224.335 295.433 224.156 295.433 223.953C295.433 223.742 295.379 223.557 295.27 223.398C295.164 223.236 295.007 223.109 294.801 223.017C294.596 222.925 294.348 222.879 294.058 222.879H293.527V222.105H294.058C294.291 222.105 294.496 222.063 294.672 221.979C294.85 221.895 294.989 221.779 295.089 221.629C295.19 221.478 295.24 221.301 295.24 221.098C295.24 220.904 295.196 220.735 295.108 220.591C295.022 220.446 294.899 220.333 294.739 220.251C294.582 220.169 294.395 220.128 294.181 220.128C293.976 220.128 293.785 220.166 293.606 220.241C293.43 220.315 293.287 220.422 293.177 220.561C293.066 220.698 293.007 220.863 292.999 221.055H292.081C292.091 220.715 292.191 220.416 292.381 220.159C292.574 219.901 292.828 219.699 293.143 219.554C293.458 219.408 293.808 219.336 294.193 219.336C294.596 219.336 294.944 219.415 295.237 219.572C295.531 219.728 295.759 219.935 295.918 220.195C296.08 220.455 296.16 220.74 296.158 221.049C296.16 221.401 296.061 221.7 295.863 221.945C295.666 222.191 295.404 222.356 295.077 222.44V222.489C295.495 222.552 295.818 222.718 296.047 222.986C296.278 223.254 296.393 223.587 296.391 223.984C296.393 224.33 296.297 224.64 296.102 224.914C295.91 225.188 295.647 225.404 295.313 225.562C294.98 225.717 294.598 225.795 294.168 225.795ZM299.74 225.814C299.255 225.812 298.841 225.684 298.497 225.43C298.153 225.176 297.89 224.807 297.708 224.322C297.526 223.837 297.435 223.252 297.435 222.569C297.435 221.887 297.526 221.305 297.708 220.822C297.892 220.339 298.156 219.97 298.5 219.716C298.846 219.463 299.259 219.336 299.74 219.336C300.221 219.336 300.634 219.464 300.978 219.72C301.322 219.973 301.585 220.342 301.767 220.825C301.951 221.306 302.043 221.887 302.043 222.569C302.043 223.254 301.952 223.84 301.77 224.325C301.588 224.808 301.325 225.177 300.981 225.433C300.637 225.687 300.224 225.814 299.74 225.814ZM299.74 224.994C300.166 224.994 300.499 224.786 300.738 224.371C300.98 223.955 301.101 223.355 301.101 222.569C301.101 222.047 301.045 221.606 300.935 221.245C300.826 220.883 300.67 220.609 300.465 220.423C300.262 220.234 300.021 220.14 299.74 220.14C299.317 220.14 298.984 220.349 298.743 220.766C298.501 221.184 298.379 221.785 298.377 222.569C298.377 223.093 298.432 223.536 298.54 223.898C298.651 224.258 298.807 224.531 299.01 224.718C299.212 224.902 299.456 224.994 299.74 224.994Z" fill="#707071"/>
<path d="M343.692 225.709V225.022L345.82 222.817C346.047 222.578 346.234 222.368 346.382 222.188C346.531 222.006 346.643 221.833 346.716 221.669C346.79 221.505 346.827 221.331 346.827 221.147C346.827 220.938 346.778 220.758 346.68 220.607C346.581 220.453 346.447 220.336 346.277 220.254C346.107 220.17 345.916 220.128 345.703 220.128C345.478 220.128 345.282 220.174 345.114 220.266C344.946 220.358 344.817 220.488 344.727 220.656C344.637 220.824 344.592 221.02 344.592 221.245H343.686C343.686 220.863 343.774 220.528 343.95 220.241C344.126 219.955 344.368 219.733 344.675 219.575C344.982 219.416 345.331 219.336 345.722 219.336C346.117 219.336 346.465 219.415 346.766 219.572C347.068 219.728 347.305 219.941 347.475 220.211C347.645 220.479 347.73 220.782 347.73 221.12C347.73 221.353 347.686 221.581 347.597 221.804C347.512 222.027 347.361 222.276 347.146 222.55C346.931 222.822 346.632 223.153 346.25 223.542L345 224.85V224.896H347.831V225.709H343.692ZM351.183 225.814C350.698 225.812 350.284 225.684 349.94 225.43C349.596 225.176 349.333 224.807 349.151 224.322C348.969 223.837 348.878 223.252 348.878 222.569C348.878 221.887 348.969 221.305 349.151 220.822C349.335 220.339 349.599 219.97 349.943 219.716C350.289 219.463 350.702 219.336 351.183 219.336C351.664 219.336 352.077 219.464 352.421 219.72C352.764 219.973 353.027 220.342 353.21 220.825C353.394 221.306 353.486 221.887 353.486 222.569C353.486 223.254 353.395 223.84 353.213 224.325C353.031 224.808 352.768 225.177 352.424 225.433C352.08 225.687 351.666 225.814 351.183 225.814ZM351.183 224.994C351.609 224.994 351.942 224.786 352.181 224.371C352.423 223.955 352.543 223.355 352.543 222.569C352.543 222.047 352.488 221.606 352.378 221.245C352.269 220.883 352.113 220.609 351.908 220.423C351.705 220.234 351.464 220.14 351.183 220.14C350.76 220.14 350.427 220.349 350.186 220.766C349.944 221.184 349.822 221.785 349.82 222.569C349.82 223.093 349.874 223.536 349.983 223.898C350.093 224.258 350.25 224.531 350.453 224.718C350.655 224.902 350.899 224.994 351.183 224.994ZM356.764 225.795C356.342 225.795 355.966 225.723 355.634 225.577C355.305 225.432 355.044 225.23 354.851 224.972C354.661 224.713 354.559 224.412 354.544 224.07H355.508C355.521 224.256 355.583 224.418 355.696 224.555C355.81 224.69 355.96 224.794 356.144 224.868C356.328 224.942 356.533 224.979 356.758 224.979C357.006 224.979 357.225 224.936 357.415 224.85C357.607 224.764 357.758 224.644 357.866 224.49C357.975 224.335 358.029 224.156 358.029 223.953C358.029 223.742 357.975 223.557 357.866 223.398C357.76 223.236 357.603 223.109 357.396 223.017C357.192 222.925 356.944 222.879 356.653 222.879H356.122V222.105H356.653C356.887 222.105 357.091 222.063 357.268 221.979C357.446 221.895 357.585 221.779 357.685 221.629C357.785 221.478 357.835 221.301 357.835 221.098C357.835 220.904 357.791 220.735 357.703 220.591C357.617 220.446 357.495 220.333 357.335 220.251C357.177 220.169 356.991 220.128 356.776 220.128C356.572 220.128 356.38 220.166 356.202 220.241C356.026 220.315 355.883 220.422 355.772 220.561C355.662 220.698 355.602 220.863 355.594 221.055H354.676C354.687 220.715 354.787 220.416 354.977 220.159C355.17 219.901 355.423 219.699 355.739 219.554C356.054 219.408 356.404 219.336 356.789 219.336C357.192 219.336 357.54 219.415 357.832 219.572C358.127 219.728 358.354 219.935 358.514 220.195C358.676 220.455 358.755 220.74 358.753 221.049C358.755 221.401 358.657 221.7 358.459 221.945C358.262 222.191 358 222.356 357.673 222.44V222.489C358.09 222.552 358.414 222.718 358.643 222.986C358.874 223.254 358.989 223.587 358.987 223.984C358.989 224.33 358.893 224.64 358.698 224.914C358.506 225.188 358.243 225.404 357.909 225.562C357.576 225.717 357.194 225.795 356.764 225.795ZM360.147 225.709V225.022L362.275 222.817C362.502 222.578 362.689 222.368 362.837 222.188C362.986 222.006 363.098 221.833 363.171 221.669C363.245 221.505 363.282 221.331 363.282 221.147C363.282 220.938 363.233 220.758 363.134 220.607C363.036 220.453 362.902 220.336 362.732 220.254C362.562 220.17 362.371 220.128 362.158 220.128C361.933 220.128 361.737 220.174 361.569 220.266C361.401 220.358 361.272 220.488 361.182 220.656C361.092 220.824 361.047 221.02 361.047 221.245H360.141C360.141 220.863 360.229 220.528 360.405 220.241C360.581 219.955 360.823 219.733 361.13 219.575C361.437 219.416 361.786 219.336 362.177 219.336C362.572 219.336 362.92 219.415 363.22 219.572C363.523 219.728 363.76 219.941 363.93 220.211C364.099 220.479 364.184 220.782 364.184 221.12C364.184 221.353 364.14 221.581 364.052 221.804C363.966 222.027 363.816 222.276 363.601 222.55C363.386 222.822 363.087 223.153 362.705 223.542L361.455 224.85V224.896H364.286V225.709H360.147Z" fill="#707071"/>
<path d="M126.902 103.744C112.861 108.837 93.4185 124.684 93.4185 124.684V135.155L299.006 182.898C299.006 182.898 278.706 161.941 264.518 150.65C251.584 140.357 230.03 125.103 230.03 125.103C230.03 125.103 209.548 112.318 195.208 106.676C181.898 101.439 174.233 99.8147 160.05 98.7187C147.035 97.7128 139.426 99.2017 126.902 103.744Z" fill="url(#paint0_linear_2_158)"/>
<path d="M93.4566 22.5745L96.0359 17.1711H89.7966L92.3759 22.5745H93.4566ZM93.4566 215.265V214.189H92.3759V215.265H93.4566ZM93.4566 212.035V209.882H92.3759V212.035H93.4566ZM93.4566 207.729V205.576H92.3759V207.729H93.4566ZM93.4566 203.423V201.269H92.3759V203.423H93.4566ZM93.4566 199.116V196.963H92.3759V199.116H93.4566ZM93.4566 194.81V192.657H92.3759V194.81H93.4566ZM93.4566 190.503V188.35H92.3759V190.503H93.4566ZM93.4566 186.197V184.044H92.3759V186.197H93.4566ZM93.4566 181.891V179.737H92.3759V181.891H93.4566ZM93.4566 177.584V175.431H92.3759V177.584H93.4566ZM93.4566 173.278V171.125H92.3759V173.278H93.4566ZM93.4566 168.971V166.818H92.3759V168.971H93.4566ZM93.4566 164.665V162.512H92.3759V164.665H93.4566ZM93.4566 160.359V158.205H92.3759V160.359H93.4566ZM93.4566 156.052V153.899H92.3759V156.052H93.4566ZM93.4566 151.746V149.593H92.3759V151.746H93.4566ZM93.4566 147.439V145.286H92.3759V147.439H93.4566ZM93.4566 143.133V140.98H92.3759V143.133H93.4566ZM93.4566 138.827V136.673H92.3759V138.827H93.4566ZM93.4566 134.52V132.367H92.3759V134.52H93.4566ZM93.4566 130.214V128.061H92.3759V130.214H93.4566ZM93.4566 125.907V123.754H92.3759V125.907H93.4566ZM93.4566 121.601V119.448H92.3759V121.601H93.4566ZM93.4566 117.295V115.142H92.3759V117.295H93.4566ZM93.4566 112.988V110.835H92.3759V112.988H93.4566ZM93.4566 108.682V106.529H92.3759V108.682H93.4566ZM93.4566 104.376V102.222H92.3759V104.376H93.4566ZM93.4566 100.069V97.9159H92.3759V100.069H93.4566ZM93.4566 95.7627V93.6095H92.3759V95.7627H93.4566ZM93.4566 91.4563V89.3031H92.3759V91.4563H93.4566ZM93.4566 87.1499V84.9967H92.3759V87.1499H93.4566ZM93.4566 82.8435V80.6903H92.3759V82.8435H93.4566ZM93.4566 78.5371V76.384H92.3759V78.5371H93.4566ZM93.4566 74.2307V72.0775H92.3759V74.2307H93.4566ZM93.4566 69.9243L93.4566 67.7711H92.3759L92.3759 69.9243H93.4566ZM93.4566 65.618V63.4648H92.3759V65.618H93.4566ZM93.4566 61.3116V59.1584H92.3759V61.3116H93.4566ZM93.4566 57.0052V54.852H92.3759V57.0052H93.4566ZM93.4566 52.6988V50.5456H92.3759V52.6988H93.4566ZM93.4566 48.3924V46.2392H92.3759V48.3924H93.4566ZM93.4566 44.086V41.9328H92.3759V44.086H93.4566ZM93.4566 39.7796V37.6264H92.3759V39.7796H93.4566ZM93.4566 35.4732V33.32H92.3759V35.4732H93.4566ZM93.4566 31.1668V29.0136H92.3759V31.1668H93.4566ZM93.4566 26.8604V24.7072H92.3759V26.8604H93.4566ZM93.4566 22.554V20.4008H92.3759V22.554H93.4566Z" fill="#BBBCBD"/>
<line y1="-0.270168" x2="286.909" y2="-0.270168" transform="matrix(0.954634 -0.29778 0.195537 0.980696 26.1169 119.778)" stroke="black" stroke-width="0.540335"/>
<path d="M23.1033 119.778C23.1033 118.622 23.8533 117.684 24.7774 117.684C25.7016 117.684 26.4516 118.622 26.4516 119.778C26.4516 120.934 25.7016 121.872 24.7774 121.872C23.8533 121.872 23.1033 120.934 23.1033 119.778ZM24.7774 121.034C25.3316 121.034 25.7819 120.471 25.7819 119.778C25.7819 119.085 25.3316 118.522 24.7774 118.522C24.2233 118.522 23.7729 119.085 23.7729 119.778C23.7729 120.471 24.2233 121.034 24.7774 121.034Z" fill="#272727"/>
<rect width="4.018" height="5.02564" transform="translate(56.9216 106.795)" fill="white"/>
<path d="M57.2563 109.308C57.2563 108.152 58.0064 107.214 58.9305 107.214C59.8547 107.214 60.6047 108.152 60.6047 109.308C60.6047 110.464 59.8547 111.402 58.9305 111.402C58.0064 111.402 57.2563 110.464 57.2563 109.308ZM58.9305 110.564C59.4847 110.564 59.935 110.001 59.935 109.308C59.935 108.615 59.4847 108.051 58.9305 108.051C58.3764 108.051 57.926 108.615 57.926 109.308C57.926 110.001 58.3764 110.564 58.9305 110.564Z" fill="#272727"/>
<rect width="4.018" height="5.02564" transform="translate(91.0745 96.325)" fill="white"/>
<path d="M91.4092 98.8378C91.4092 97.6819 92.1592 96.7438 93.0833 96.7438C94.0075 96.7438 94.7575 97.6819 94.7575 98.8378C94.7575 99.9937 94.0075 100.932 93.0833 100.932C92.1592 100.932 91.4092 99.9937 91.4092 98.8378ZM93.0833 100.094C93.6375 100.094 94.0878 99.5309 94.0878 98.8378C94.0878 98.1447 93.6375 97.5814 93.0833 97.5814C92.5292 97.5814 92.0788 98.1447 92.0788 98.8378C92.0788 99.5309 92.5292 100.094 93.0833 100.094Z" fill="#272727"/>
<rect width="4.018" height="5.02564" transform="translate(125.228 85.436)" fill="white"/>
<path d="M125.562 87.9489C125.562 86.793 126.312 85.8549 127.236 85.8549C128.161 85.8549 128.911 86.793 128.911 87.9489C128.911 89.1048 128.161 90.0429 127.236 90.0429C126.312 90.0429 125.562 89.1048 125.562 87.9489ZM127.236 89.2053C127.791 89.2053 128.241 88.642 128.241 87.9489C128.241 87.2558 127.791 86.6925 127.236 86.6925C126.682 86.6925 126.232 87.2558 126.232 87.9489C126.232 88.642 126.682 89.2053 127.236 89.2053Z" fill="#2B6ACB"/>
<rect width="4.018" height="5.02564" transform="translate(159.381 74.5472)" fill="white"/>
<path d="M159.715 77.0601C159.715 75.9042 160.465 74.9661 161.389 74.9661C162.314 74.9661 163.064 75.9042 163.064 77.0601C163.064 78.216 162.314 79.1541 161.389 79.1541C160.465 79.1541 159.715 78.216 159.715 77.0601ZM161.389 78.3165C161.944 78.3165 162.394 77.7532 162.394 77.0601C162.394 76.367 161.944 75.8037 161.389 75.8037C160.835 75.8037 160.385 76.367 160.385 77.0601C160.385 77.7532 160.835 78.3165 161.389 78.3165Z" fill="#2B6ACB"/>
<rect width="4.018" height="5.02564" transform="translate(193.534 64.4958)" fill="white"/>
<path d="M193.868 67.0087C193.868 65.8528 194.618 64.9147 195.543 64.9147C196.467 64.9147 197.217 65.8528 197.217 67.0087C197.217 68.1646 196.467 69.1027 195.543 69.1027C194.618 69.1027 193.868 68.1646 193.868 67.0087ZM195.543 68.2651C196.097 68.2651 196.547 67.7018 196.547 67.0087C196.547 66.3156 196.097 65.7523 195.543 65.7523C194.988 65.7523 194.538 66.3156 194.538 67.0087C194.538 67.7018 194.988 68.2651 195.543 68.2651Z" fill="#2B6ACB"/>
<rect width="4.018" height="5.02564" transform="translate(227.687 53.6071)" fill="white"/>
<path d="M228.021 56.1199C228.021 54.964 228.771 54.0259 229.695 54.0259C230.62 54.0259 231.37 54.964 231.37 56.1199C231.37 57.2758 230.62 58.2139 229.695 58.2139C228.771 58.2139 228.021 57.2758 228.021 56.1199ZM229.695 57.3763C230.25 57.3763 230.7 56.813 230.7 56.1199C230.7 55.4268 230.25 54.8635 229.695 54.8635C229.141 54.8635 228.691 55.4268 228.691 56.1199C228.691 56.813 229.141 57.3763 229.695 57.3763Z" fill="#2B6ACB"/>
<rect width="4.018" height="5.02564" transform="translate(261.84 43.137)" fill="white"/>
<path d="M262.174 45.6498C262.174 44.4939 262.924 43.5558 263.848 43.5558C264.773 43.5558 265.523 44.4939 265.523 45.6498C265.523 46.8057 264.773 47.7438 263.848 47.7438C262.924 47.7438 262.174 46.8057 262.174 45.6498ZM263.848 46.9062C264.403 46.9062 264.853 46.3429 264.853 45.6498C264.853 44.9567 264.403 44.3934 263.848 44.3934C263.294 44.3934 262.844 44.9567 262.844 45.6498C262.844 46.3429 263.294 46.9062 263.848 46.9062Z" fill="#2B6ACB"/>
<rect width="4.018" height="5.02564" transform="translate(295.993 31.8292)" fill="white"/>
<path d="M296.327 34.3421C296.327 33.1862 297.077 32.248 298.002 32.248C298.926 32.248 299.676 33.1862 299.676 34.3421C299.676 35.498 298.926 36.4361 298.002 36.4361C297.077 36.4361 296.327 35.498 296.327 34.3421ZM298.002 35.5985C298.556 35.5985 299.006 35.0352 299.006 34.3421C299.006 33.6489 298.556 33.0857 298.002 33.0857C297.447 33.0857 296.997 33.6489 296.997 34.3421C296.997 35.0352 297.447 35.5985 298.002 35.5985Z" fill="#2B6ACB"/>
<line y1="-0.270168" x2="212.553" y2="-0.270168" transform="matrix(0.97353 0.22856 -0.148406 0.988927 93.0835 135.274)" stroke="#34A853" stroke-width="0.540335"/>
<rect width="4.018" height="5.02564" transform="translate(91.0745 132.761)" fill="white"/>
<path d="M91.4092 135.274C91.4092 134.118 92.1592 133.18 93.0833 133.18C94.0075 133.18 94.7575 134.118 94.7575 135.274C94.7575 136.429 94.0075 137.368 93.0833 137.368C92.1592 137.368 91.4092 136.429 91.4092 135.274ZM93.0833 136.53C93.6375 136.53 94.0878 135.967 94.0878 135.274C94.0878 134.58 93.6375 134.017 93.0833 134.017C92.5292 134.017 92.0788 134.58 92.0788 135.274C92.0788 135.967 92.5292 136.53 93.0833 136.53Z" fill="#34A853"/>
<rect width="4.018" height="5.02564" transform="translate(125.228 140.718)" fill="white"/>
<path d="M125.562 143.231C125.562 142.075 126.312 141.137 127.236 141.137C128.161 141.137 128.911 142.075 128.911 143.231C128.911 144.387 128.161 145.325 127.236 145.325C126.312 145.325 125.562 144.387 125.562 143.231ZM127.236 144.487C127.791 144.487 128.241 143.924 128.241 143.231C128.241 142.538 127.791 141.974 127.236 141.974C126.682 141.974 126.232 142.538 126.232 143.231C126.232 143.924 126.682 144.487 127.236 144.487Z" fill="#34A853"/>
<rect width="4.018" height="5.02564" transform="translate(159.381 148.675)" fill="white"/>
<path d="M159.715 151.188C159.715 150.032 160.465 149.094 161.389 149.094C162.314 149.094 163.064 150.032 163.064 151.188C163.064 152.344 162.314 153.282 161.389 153.282C160.465 153.282 159.715 152.344 159.715 151.188ZM161.389 152.445C161.944 152.445 162.394 151.881 162.394 151.188C162.394 150.495 161.944 149.932 161.389 149.932C160.835 149.932 160.385 150.495 160.385 151.188C160.385 151.881 160.835 152.445 161.389 152.445Z" fill="#34A853"/>
<rect width="4.018" height="5.02564" transform="translate(193.533 156.633)" fill="white"/>
<path d="M193.868 159.145C193.868 157.989 194.618 157.051 195.542 157.051C196.466 157.051 197.216 157.989 197.216 159.145C197.216 160.301 196.466 161.239 195.542 161.239C194.618 161.239 193.868 160.301 193.868 159.145ZM195.542 160.402C196.096 160.402 196.547 159.838 196.547 159.145C196.547 158.452 196.096 157.889 195.542 157.889C194.988 157.889 194.538 158.452 194.538 159.145C194.538 159.838 194.988 160.402 195.542 160.402Z" fill="#34A853"/>
<rect width="4.018" height="5.02564" transform="translate(227.687 164.59)" fill="white"/>
<path d="M228.021 167.103C228.021 165.947 228.771 165.009 229.695 165.009C230.62 165.009 231.37 165.947 231.37 167.103C231.37 168.259 230.62 169.197 229.695 169.197C228.771 169.197 228.021 168.259 228.021 167.103ZM229.695 168.359C230.25 168.359 230.7 167.796 230.7 167.103C230.7 166.41 230.25 165.846 229.695 165.846C229.141 165.846 228.691 166.41 228.691 167.103C228.691 167.796 229.141 168.359 229.695 168.359Z" fill="#34A853"/>
<rect width="4.018" height="5.02564" transform="translate(261.84 172.547)" fill="white"/>
<path d="M262.174 175.06C262.174 173.904 262.924 172.966 263.848 172.966C264.773 172.966 265.523 173.904 265.523 175.06C265.523 176.216 264.773 177.154 263.848 177.154C262.924 177.154 262.174 176.216 262.174 175.06ZM263.848 176.316C264.403 176.316 264.853 175.753 264.853 175.06C264.853 174.367 264.403 173.803 263.848 173.803C263.294 173.803 262.844 174.367 262.844 175.06C262.844 175.753 263.294 176.316 263.848 176.316Z" fill="#34A853"/>
<rect width="4.018" height="5.02564" transform="translate(295.992 180.504)" fill="white"/>
<path d="M296.327 183.017C296.327 181.861 297.077 180.923 298.001 180.923C298.925 180.923 299.675 181.861 299.675 183.017C299.675 184.173 298.925 185.111 298.001 185.111C297.077 185.111 296.327 184.173 296.327 183.017ZM298.001 184.274C298.555 184.274 299.006 183.71 299.006 183.017C299.006 182.324 298.555 181.761 298.001 181.761C297.447 181.761 296.997 182.324 296.997 183.017C296.997 183.71 297.447 184.274 298.001 184.274Z" fill="#34A853"/>
<path d="M92.7485 124.804C92.7485 124.804 112.191 108.956 126.232 103.863C138.756 99.3207 146.365 97.8319 159.38 98.8377C173.563 99.9337 181.228 101.558 194.538 106.795C208.878 112.437 229.361 125.222 229.361 125.222C229.361 125.222 250.914 140.476 263.848 150.769C278.036 162.06 298.336 183.017 298.336 183.017" stroke="#F8AA1B" stroke-width="0.540335"/>
<rect width="4.018" height="5.02564" transform="translate(91.0745 122.291)" fill="white"/>
<path d="M91.4092 124.804C91.4092 123.648 92.1592 122.71 93.0833 122.71C94.0075 122.71 94.7575 123.648 94.7575 124.804C94.7575 125.96 94.0075 126.898 93.0833 126.898C92.1592 126.898 91.4092 125.96 91.4092 124.804ZM93.0833 126.06C93.6375 126.06 94.0878 125.497 94.0878 124.804C94.0878 124.11 93.6375 123.547 93.0833 123.547C92.5292 123.547 92.0788 124.11 92.0788 124.804C92.0788 125.497 92.5292 126.06 93.0833 126.06Z" fill="#F8AA1B"/>
<rect width="4.018" height="5.02564" transform="translate(125.228 100.932)" fill="white"/>
<path d="M125.562 103.445C125.562 102.289 126.312 101.351 127.236 101.351C128.161 101.351 128.911 102.289 128.911 103.445C128.911 104.601 128.161 105.539 127.236 105.539C126.312 105.539 125.562 104.601 125.562 103.445ZM127.236 104.701C127.791 104.701 128.241 104.138 128.241 103.445C128.241 102.751 127.791 102.188 127.236 102.188C126.682 102.188 126.232 102.751 126.232 103.445C126.232 104.138 126.682 104.701 127.236 104.701Z" fill="#F8AA1B"/>
<rect width="4.018" height="5.02564" transform="translate(159.381 96.325)" fill="white"/>
<path d="M159.715 98.8378C159.715 97.6819 160.465 96.7438 161.389 96.7438C162.314 96.7438 163.064 97.6819 163.064 98.8378C163.064 99.9937 162.314 100.932 161.389 100.932C160.465 100.932 159.715 99.9937 159.715 98.8378ZM161.389 100.094C161.944 100.094 162.394 99.5309 162.394 98.8378C162.394 98.1447 161.944 97.5814 161.389 97.5814C160.835 97.5814 160.385 98.1447 160.385 98.8378C160.385 99.5309 160.835 100.094 161.389 100.094Z" fill="#F8AA1B"/>
<rect width="4.018" height="5.02564" transform="translate(193.533 104.701)" fill="white"/>
<path d="M193.868 107.214C193.868 106.058 194.618 105.12 195.542 105.12C196.466 105.12 197.216 106.058 197.216 107.214C197.216 108.37 196.466 109.308 195.542 109.308C194.618 109.308 193.868 108.37 193.868 107.214ZM195.542 108.47C196.096 108.47 196.547 107.907 196.547 107.214C196.547 106.521 196.096 105.957 195.542 105.957C194.988 105.957 194.538 106.521 194.538 107.214C194.538 107.907 194.988 108.47 195.542 108.47Z" fill="#F8AA1B"/>
<rect width="4.018" height="5.02564" transform="translate(227.687 122.709)" fill="white"/>
<path d="M228.021 125.222C228.021 124.066 228.771 123.128 229.695 123.128C230.62 123.128 231.37 124.066 231.37 125.222C231.37 126.378 230.62 127.316 229.695 127.316C228.771 127.316 228.021 126.378 228.021 125.222ZM229.695 126.479C230.25 126.479 230.7 125.915 230.7 125.222C230.7 124.529 230.25 123.966 229.695 123.966C229.141 123.966 228.691 124.529 228.691 125.222C228.691 125.915 229.141 126.479 229.695 126.479Z" fill="#F8AA1B"/>
<rect width="4.018" height="5.02564" transform="translate(295.992 180.504)" fill="white"/>
<path d="M296.327 183.017C296.327 181.861 297.077 180.923 298.001 180.923C298.925 180.923 299.675 181.861 299.675 183.017C299.675 184.173 298.925 185.111 298.001 185.111C297.077 185.111 296.327 184.173 296.327 183.017ZM298.001 184.274C298.555 184.274 299.006 183.71 299.006 183.017C299.006 182.324 298.555 181.761 298.001 181.761C297.447 181.761 296.997 182.324 296.997 183.017C296.997 183.71 297.447 184.274 298.001 184.274Z" fill="#F8AA1B"/>
<rect width="4.018" height="5.02564" transform="translate(261.84 148.257)" fill="white"/>
<path d="M262.174 150.769C262.174 149.613 262.924 148.675 263.848 148.675C264.773 148.675 265.523 149.613 265.523 150.769C265.523 151.925 264.773 152.863 263.848 152.863C262.924 152.863 262.174 151.925 262.174 150.769ZM263.848 152.026C264.403 152.026 264.853 151.462 264.853 150.769C264.853 150.076 264.403 149.513 263.848 149.513C263.294 149.513 262.844 150.076 262.844 150.769C262.844 151.462 263.294 152.026 263.848 152.026Z" fill="#F8AA1B"/>
<defs>
<linearGradient id="paint0_linear_2_158" x1="196.212" y1="98.4189" x2="196.212" y2="182.898" gradientUnits="userSpaceOnUse">
<stop stop-color="#2B6ACB" stop-opacity="0.16"/>
<stop offset="0.581834" stop-color="#2B6ACB" stop-opacity="0"/>
</linearGradient>
</defs>
</svg>
