<svg width="890" height="171" viewBox="0 0 890 171" fill="none" xmlns="http://www.w3.org/2000/svg">
<g clip-path="url(#clip0_820_11025)">
<path d="M88.9337 141.468C85.0512 145.752 80.4291 149.059 75.1414 151.351C69.8537 153.643 64.0484 154.808 57.8363 154.808C50.1821 154.808 43.3414 152.967 37.2403 149.322C32.5073 146.466 28.5877 142.784 25.4447 138.274L12.8357 149.134C16.7552 154.357 21.5622 158.716 27.1826 162.248C27.6633 162.624 28.181 162.924 28.6987 163.225C37.3512 168.373 47.0761 170.966 57.8363 170.966C66.267 170.966 74.1061 169.388 81.3535 166.194C88.6009 163.037 94.776 158.528 99.9528 152.666L88.9337 141.468ZM75.0305 74.0941C80.2442 76.3862 84.7184 79.6554 88.49 83.9391L99.4721 72.5159C94.4802 66.8418 88.3791 62.4078 81.2426 59.2139C74.0321 56.0574 66.267 54.4792 57.8363 54.4792C57.3926 54.4792 56.9119 54.4792 56.4682 54.5168V70.6746C56.9119 70.6746 57.3926 70.6746 57.8363 70.6746C64.0484 70.6746 69.7798 71.8019 75.0305 74.1316V74.0941ZM22.9673 90.9658C25.1119 87.0579 27.7373 83.676 30.8803 80.8202L20.3049 68.1194C15.498 72.2153 11.4675 77.1753 8.21357 82.8869C3.36962 91.4167 0.89218 100.961 0.78125 111.558H17.8645C17.9754 103.854 19.6763 96.978 22.9673 90.9658Z" fill="#3076E2"/>
<path d="M122.627 0.255615V168.597H139.266V0.255615H122.627Z" fill="#272727"/>
<path d="M172.456 56.8477V168.6H189.058V56.8477H172.456ZM188.948 12.6204C186.84 10.4034 184.067 9.27612 180.628 9.27612C177.522 9.27612 174.859 10.4034 172.678 12.6204C170.496 14.8374 169.424 17.6181 169.424 20.9248C169.424 24.2315 170.496 26.8994 172.678 29.2667C174.859 31.634 177.522 32.8364 180.628 32.8364C184.067 32.8364 186.84 31.634 188.948 29.2667C191.055 26.8994 192.091 24.1188 192.091 20.9248C192.091 17.7308 191.055 14.8374 188.948 12.6204Z" fill="#272727"/>
<path d="M384.534 74.4323C380.874 68.0819 375.882 63.1969 369.559 59.7023C363.273 56.2078 356.21 54.4792 348.408 54.4792C340.606 54.4792 333.469 56.2078 326.998 59.7023C320.528 63.1969 315.314 68.0819 311.32 74.4323C310.877 75.1086 310.47 75.8226 310.1 76.5365C306.883 82.3984 305.071 89.1622 304.665 96.7901L314.463 99.8714C314.463 93.8592 315.832 88.6361 318.568 84.1645C321.304 79.7305 324.965 76.3111 329.55 73.831C334.172 71.3886 339.201 70.1486 344.673 70.1486C352.919 70.1486 359.797 72.854 365.232 78.2275C370.705 83.6384 373.441 90.9282 373.441 100.097V168.598H390.044V97.0156C390.044 88.2979 388.195 80.7826 384.534 74.4323ZM310.1 76.5365C309.767 75.8226 309.398 75.1086 308.991 74.4323C305.33 68.0819 300.412 63.1969 294.237 59.7023C288.062 56.2078 281.11 54.4792 273.308 54.4792C265.506 54.4792 258.222 56.2078 251.899 59.7023C246.574 62.6709 242.137 66.5788 238.661 71.5765C237.996 72.4783 237.404 73.4553 236.812 74.4323C233.078 80.7826 231.192 88.2228 231.192 96.7901L238.661 99.8714C238.661 93.8592 240.029 88.6361 242.766 84.1645C245.502 79.7305 249.163 76.3111 253.785 73.831C258.37 71.3886 263.472 70.1486 269.093 70.1486C277.339 70.1486 284.216 72.854 289.689 78.2275C295.125 83.6384 297.861 90.9282 297.861 100.097V168.598H314.463V97.0156C314.463 89.2373 313.021 82.3984 310.1 76.5365ZM222.059 56.8466V168.598H238.661V56.8466H222.059Z" fill="#272727"/>
<path d="M507.945 56.8466V84.1645L511.199 111.032L507.945 138.613V168.598H524.547V56.8466H507.945ZM507.945 75.2965C507.649 74.808 507.316 74.3195 506.983 73.831C502.805 67.7437 497.37 62.9715 490.751 59.5896C484.095 56.1702 476.589 54.4792 468.158 54.4792C457.878 54.4792 448.634 57.0344 440.425 62.1824C432.254 67.3303 425.746 74.3195 420.902 83.1124C416.058 91.9052 413.654 101.863 413.654 112.948C413.654 124.033 416.058 133.728 420.902 142.445C425.746 151.163 432.291 158.077 440.573 163.225C448.819 168.373 458.1 170.966 468.417 170.966C476.81 170.966 484.317 169.237 490.862 165.855C497.406 162.436 502.768 157.626 506.873 151.464C507.242 150.9 507.612 150.336 507.945 149.735C511.458 143.948 513.639 137.41 514.49 130.083V95.0992C513.787 87.6591 511.569 81.0833 507.945 75.2965ZM498.59 143.385C491.712 151.163 482.505 155.033 470.968 155.033C463.314 155.033 456.473 153.192 450.372 149.547C444.308 145.902 439.501 140.942 435.988 134.592C432.475 128.241 430.738 120.952 430.738 112.722C430.738 104.493 432.475 97.1659 435.988 90.8531C439.501 84.5027 444.271 79.5051 450.261 75.8602C456.251 72.2153 463.092 70.374 470.746 70.374C478.4 70.374 485.093 72.1777 490.862 75.7474C496.63 79.3172 501.067 84.2772 504.173 90.5901C507.316 96.9404 508.869 104.305 508.869 112.722C508.869 125.386 505.43 135.606 498.59 143.385Z" fill="#272727"/>
<path d="M573.436 9.7644V168.599H590.076V9.7644H573.436ZM545.852 56.8475V72.0659H617.66V56.8475H545.852Z" fill="#272727"/>
<path d="M640.122 56.8477V168.6H656.761V56.8477H640.122ZM656.65 12.6204C654.543 10.4034 651.77 9.27612 648.331 9.27612C645.188 9.27612 642.562 10.4034 640.381 12.6204C638.199 14.8374 637.09 17.6181 637.09 20.9248C637.09 24.2315 638.199 26.8994 640.381 29.2667C642.562 31.634 645.188 32.8364 648.331 32.8364C651.77 32.8364 654.543 31.634 656.65 29.2667C658.721 26.8994 659.794 24.1188 659.794 20.9248C659.794 17.7308 658.721 14.8374 656.65 12.6204Z" fill="#272727"/>
<path d="M747.521 111.182C742.825 108.702 737.907 106.748 732.767 105.207C727.628 103.704 722.747 102.201 718.161 100.698C713.539 99.195 709.768 97.2035 706.81 94.761C703.852 92.3186 702.335 88.9367 702.335 84.653C702.335 80.3693 704.184 76.6117 707.845 73.831C711.506 71.0504 716.867 69.6601 723.893 69.6601C729.957 69.6601 735.467 70.8625 740.385 73.2298C745.265 75.6347 749.296 78.9414 752.402 83.2251L763.162 72.2904C759.132 66.4285 753.733 61.9945 747.04 58.9884C740.348 55.9823 732.841 54.4792 724.595 54.4792C716.35 54.4792 709.842 55.7568 704.221 58.3872C698.601 61.0175 694.238 64.6624 691.132 69.3219C687.988 73.9813 686.435 79.5051 686.435 85.8554C686.435 92.6568 687.915 98.1053 690.873 102.126C693.831 106.184 697.639 109.341 702.225 111.633C706.847 113.925 711.728 115.841 716.867 117.344C722.007 118.847 726.925 120.426 731.584 122.117C736.28 123.77 740.052 125.912 742.936 128.505C745.82 131.135 747.262 134.817 747.262 139.59C747.262 144.662 745.191 148.608 741.087 151.464C736.946 154.319 731.288 155.747 724.115 155.747C716.941 155.747 711.062 154.432 705.515 151.802C699.969 149.209 695.014 145.188 690.651 139.815L679.891 150.75C683.329 154.883 687.249 158.453 691.723 161.459C696.16 164.465 701.115 166.795 706.551 168.448C712.023 170.139 717.718 170.966 723.634 170.966C735.799 170.966 745.45 167.997 752.55 162.06C759.612 156.086 763.162 148.119 763.162 138.162C763.162 131.022 761.72 125.348 758.836 121.14C755.952 116.969 752.18 113.624 747.521 111.182Z" fill="#272727"/>
<path d="M883.292 80.482C878.855 72.328 872.791 65.94 865.063 61.3557C857.335 56.7714 848.423 54.4792 838.255 54.4792C828.086 54.4792 818.066 56.9969 809.487 62.0697C800.908 67.1425 794.179 74.0941 789.261 82.8869C784.343 91.6798 781.902 101.525 781.902 112.459C781.902 123.394 784.417 133.54 789.483 142.445C794.548 151.313 801.463 158.265 810.19 163.338C818.916 168.411 828.752 170.966 839.66 170.966C848.423 170.966 856.595 169.312 864.249 165.968C871.867 162.624 878.264 157.814 883.44 151.464L872.643 140.529C868.761 145.451 863.991 149.134 858.37 151.576C852.787 154.056 846.686 155.259 840.141 155.259C831.858 155.259 824.573 153.455 818.25 149.81C811.964 146.165 807.047 141.093 803.534 134.592C800.982 129.895 799.392 124.634 798.727 118.885H888.802C889.283 116.668 889.579 114.714 889.726 113.061C889.874 111.407 889.985 109.942 889.985 108.664C889.985 98.0677 887.767 88.6737 883.292 80.482ZM798.764 104.644C799.466 99.2326 800.982 94.3477 803.312 89.9888C806.64 83.7512 811.299 78.8287 817.215 75.2589C823.131 71.6892 830.083 69.9231 838.033 69.9231C845.539 69.9231 851.973 71.5765 857.335 74.9207C862.733 78.2275 866.838 82.8869 869.722 88.824C871.978 93.4459 873.272 98.7065 873.679 104.644H798.764Z" fill="#272727"/>
</g>
<defs>
<clipPath id="clip0_820_11025">
<rect width="889.216" height="170.709" fill="white" transform="translate(0.78125 0.255859)"/>
</clipPath>
</defs>
</svg>
