<svg width="168" height="369" viewBox="0 0 168 369" fill="none" xmlns="http://www.w3.org/2000/svg">
<rect width="168" height="369" fill="white"/>
<rect width="167.462" height="368.703" fill="white"/>
<path d="M21.2565 20.6765C21.202 20.1926 20.977 19.8177 20.5817 19.5519C20.1864 19.2826 19.6888 19.148 19.089 19.148C18.6595 19.148 18.2881 19.2162 17.9745 19.3525C17.661 19.4854 17.4173 19.6694 17.2435 19.9046C17.0731 20.1363 16.9879 20.4005 16.9879 20.697C16.9879 20.9458 17.0458 21.1605 17.1617 21.3411C17.281 21.5217 17.436 21.6734 17.6269 21.7961C17.8211 21.9154 18.029 22.0159 18.2506 22.0977C18.4721 22.1761 18.6851 22.2408 18.8896 22.292L19.912 22.5578C20.246 22.6396 20.5885 22.7504 20.9396 22.8901C21.2906 23.0298 21.6161 23.2139 21.916 23.4422C22.2159 23.6705 22.4579 23.9534 22.6419 24.2908C22.8294 24.6282 22.9231 25.0321 22.9231 25.5024C22.9231 26.0954 22.7697 26.622 22.463 27.0821C22.1597 27.5422 21.7183 27.9051 21.1389 28.171C20.563 28.4368 19.866 28.5697 19.0481 28.5697C18.2642 28.5697 17.586 28.4453 17.0134 28.1965C16.4409 27.9477 15.9927 27.595 15.6689 27.1383C15.3452 26.6782 15.1662 26.1329 15.1321 25.5024H16.7169C16.7476 25.8807 16.8703 26.196 17.085 26.4482C17.3031 26.6969 17.5809 26.8827 17.9183 27.0054C18.2591 27.1247 18.6323 27.1843 19.0378 27.1843C19.4843 27.1843 19.8813 27.1144 20.229 26.9747C20.58 26.8316 20.8561 26.6339 21.0571 26.3817C21.2582 26.1261 21.3588 25.8279 21.3588 25.4871C21.3588 25.1769 21.2701 24.923 21.0929 24.7254C20.9191 24.5277 20.6822 24.3641 20.3823 24.2346C20.0858 24.1051 19.7501 23.9909 19.3752 23.8921L18.1381 23.5547C17.2997 23.3263 16.6351 22.9906 16.1444 22.5476C15.657 22.1045 15.4133 21.5183 15.4133 20.789C15.4133 20.1858 15.5769 19.6592 15.9041 19.2093C16.2313 18.7595 16.6743 18.4101 17.2332 18.1613C17.7922 17.9091 18.4227 17.783 19.1247 17.783C19.8336 17.783 20.459 17.9074 21.0009 18.1562C21.5462 18.405 21.9756 18.7475 22.2892 19.1838C22.6027 19.6166 22.7663 20.1142 22.7799 20.6765H21.2565ZM26.2166 23.7336V28.3959H24.6881V17.9262H26.1961V21.8217H26.2933C26.4773 21.399 26.7585 21.0633 27.1368 20.8146C27.5151 20.5658 28.0093 20.4414 28.6193 20.4414C29.1578 20.4414 29.6281 20.5521 30.0303 20.7737C30.4358 20.9952 30.7494 21.3258 30.9709 21.7654C31.1958 22.2017 31.3083 22.747 31.3083 23.4013V28.3959H29.7798V23.5853C29.7798 23.0094 29.6315 22.5629 29.335 22.246C29.0385 21.9256 28.6261 21.7654 28.0979 21.7654C27.7366 21.7654 27.4128 21.8421 27.1266 21.9955C26.8437 22.1488 26.6204 22.3738 26.4569 22.6703C26.2967 22.9634 26.2166 23.3178 26.2166 23.7336ZM36.6556 28.5544C35.9195 28.5544 35.277 28.3857 34.7283 28.0483C34.1796 27.7109 33.7536 27.2388 33.4503 26.6322C33.147 26.0256 32.9953 25.3167 32.9953 24.5055C32.9953 23.691 33.147 22.9787 33.4503 22.3687C33.7536 21.7586 34.1796 21.2849 34.7283 20.9475C35.277 20.6101 35.9195 20.4414 36.6556 20.4414C37.3918 20.4414 38.0342 20.6101 38.5829 20.9475C39.1316 21.2849 39.5576 21.7586 39.8609 22.3687C40.1643 22.9787 40.3159 23.691 40.3159 24.5055C40.3159 25.3167 40.1643 26.0256 39.8609 26.6322C39.5576 27.2388 39.1316 27.7109 38.5829 28.0483C38.0342 28.3857 37.3918 28.5544 36.6556 28.5544ZM36.6607 27.2712C37.1379 27.2712 37.5332 27.1451 37.8467 26.8929C38.1603 26.6407 38.392 26.305 38.542 25.8858C38.6954 25.4666 38.7721 25.0048 38.7721 24.5004C38.7721 23.9994 38.6954 23.5393 38.542 23.1201C38.392 22.6975 38.1603 22.3584 37.8467 22.1028C37.5332 21.8472 37.1379 21.7194 36.6607 21.7194C36.1802 21.7194 35.7814 21.8472 35.4645 22.1028C35.1509 22.3584 34.9175 22.6975 34.7641 23.1201C34.6142 23.5393 34.5392 23.9994 34.5392 24.5004C34.5392 25.0048 34.6142 25.4666 34.7641 25.8858C34.9175 26.305 35.1509 26.6407 35.4645 26.8929C35.7814 27.1451 36.1802 27.2712 36.6607 27.2712ZM43.4855 28.3959L41.1748 20.5436H42.7544L44.2932 26.3101H44.3699L45.9137 20.5436H47.4934L49.027 26.2846H49.1037L50.6323 20.5436H52.2119L49.9063 28.3959H48.3471L46.7521 22.7265H46.6346L45.0396 28.3959H43.4855Z" fill="#272727"/>
<path d="M23.3933 51.0402C21.3239 51.0402 19.6444 52.7197 19.6444 54.7891C19.6444 56.8585 21.3239 58.538 23.3933 58.538C25.4627 58.538 27.1423 56.8585 27.1423 54.7891C27.1423 52.7197 25.4627 51.0402 23.3933 51.0402ZM23.3933 47.2912C19.2545 47.2912 15.8955 50.6503 15.8955 54.7891C15.8955 58.9279 19.2545 62.2869 23.3933 62.2869C27.5321 62.2869 30.8912 58.9279 30.8912 54.7891C30.8912 50.6503 27.5321 47.2912 23.3933 47.2912ZM23.3933 60.7873C20.0793 60.7873 17.3951 58.1031 17.3951 54.7891C17.3951 51.475 20.0793 48.7908 23.3933 48.7908C26.7074 48.7908 29.3916 51.475 29.3916 54.7891C29.3916 58.1031 26.7074 60.7873 23.3933 60.7873Z" fill="#2B6ACB"/>
<path d="M41.623 60.2891H39.9462L43.7139 49.8194H45.5389L49.3066 60.2891H47.6298L44.6699 51.7211H44.5881L41.623 60.2891ZM41.9042 56.1891H47.3435V57.5183H41.9042V56.1891ZM52.2244 49.8194V60.2891H50.6958V49.8194H52.2244ZM55.8093 49.8194V60.2891H54.2807V49.8194H55.8093ZM67.5084 52.5697C67.4539 52.0858 67.229 51.7109 66.8336 51.445C66.4383 51.1758 65.9407 51.0412 65.3409 51.0412C64.9115 51.0412 64.54 51.1093 64.2264 51.2457C63.9129 51.3786 63.6692 51.5626 63.4954 51.7978C63.325 52.0295 63.2398 52.2937 63.2398 52.5902C63.2398 52.839 63.2977 53.0537 63.4136 53.2343C63.5329 53.4149 63.6879 53.5666 63.8788 53.6893C64.0731 53.8086 64.281 53.9091 64.5025 53.9909C64.724 54.0693 64.937 54.134 65.1415 54.1852L66.1639 54.451C66.4979 54.5328 66.8404 54.6435 67.1915 54.7833C67.5425 54.923 67.868 55.1071 68.1679 55.3354C68.4678 55.5637 68.7098 55.8466 68.8938 56.184C69.0813 56.5214 69.175 56.9253 69.175 57.3956C69.175 57.9886 69.0216 58.5152 68.7149 58.9753C68.4116 59.4353 67.9702 59.7983 67.3909 60.0641C66.8149 60.33 66.1179 60.4629 65.3 60.4629C64.5161 60.4629 63.8379 60.3385 63.2653 60.0897C62.6928 59.8409 62.2446 59.4882 61.9208 59.0315C61.5971 58.5714 61.4182 58.0261 61.3841 57.3956H62.9688C62.9995 57.7739 63.1222 58.0891 63.3369 58.3413C63.555 58.5901 63.8328 58.7759 64.1702 58.8986C64.511 59.0179 64.8842 59.0775 65.2898 59.0775C65.7362 59.0775 66.1333 59.0076 66.4809 58.8679C66.8319 58.7248 67.108 58.5271 67.3091 58.2749C67.5101 58.0193 67.6107 57.7211 67.6107 57.3803C67.6107 57.0701 67.5221 56.8162 67.3448 56.6185C67.171 56.4209 66.9342 56.2573 66.6343 56.1278C66.3378 55.9983 66.0021 55.8841 65.6272 55.7853L64.39 55.4479C63.5516 55.2195 62.887 54.8838 62.3963 54.4408C61.9089 53.9977 61.6652 53.4115 61.6652 52.6822C61.6652 52.0789 61.8288 51.5524 62.156 51.1025C62.4832 50.6527 62.9262 50.3033 63.4852 50.0545C64.0441 49.8023 64.6746 49.6762 65.3767 49.6762C66.0856 49.6762 66.7109 49.8006 67.2528 50.0494C67.7981 50.2982 68.2275 50.6407 68.5411 51.077C68.8546 51.5098 69.0182 52.0074 69.0319 52.5697H67.5084ZM74.2475 60.4476C73.4875 60.4476 72.8332 60.2754 72.2845 59.9312C71.7392 59.5836 71.32 59.1048 71.0269 58.4947C70.7338 57.8847 70.5872 57.186 70.5872 56.3987C70.5872 55.6012 70.7372 54.8975 71.0371 54.2874C71.337 53.6739 71.7596 53.1951 72.3049 52.8509C72.8502 52.5067 73.4926 52.3346 74.2322 52.3346C74.8286 52.3346 75.3603 52.4453 75.8272 52.6668C76.2941 52.885 76.6707 53.1917 76.957 53.587C77.2467 53.9824 77.4188 54.4442 77.4733 54.9724H75.9857C75.9039 54.6044 75.7164 54.2874 75.4233 54.0216C75.1336 53.7557 74.7451 53.6228 74.2578 53.6228C73.8318 53.6228 73.4586 53.7353 73.1382 53.9602C72.8212 54.1818 72.5742 54.4987 72.3969 54.9111C72.2197 55.3201 72.1311 55.804 72.1311 56.3629C72.1311 56.9355 72.218 57.4297 72.3918 57.8455C72.5656 58.2613 72.811 58.5833 73.128 58.8117C73.4483 59.04 73.8249 59.1542 74.2578 59.1542C74.5475 59.1542 74.8099 59.1014 75.045 58.9957C75.2836 58.8866 75.483 58.7316 75.6432 58.5305C75.8067 58.3294 75.9209 58.0874 75.9857 57.8046H77.4733C77.4188 58.3124 77.2535 58.7657 76.9774 59.1644C76.7014 59.5632 76.3316 59.8767 75.8681 60.105C75.408 60.3334 74.8678 60.4476 74.2475 60.4476ZM82.4155 60.4476C81.6793 60.4476 81.0369 60.2789 80.4882 59.9415C79.9395 59.604 79.5135 59.132 79.2102 58.5254C78.9068 57.9187 78.7552 57.2099 78.7552 56.3987C78.7552 55.5842 78.9068 54.8719 79.2102 54.2618C79.5135 53.6518 79.9395 53.1781 80.4882 52.8407C81.0369 52.5033 81.6793 52.3346 82.4155 52.3346C83.1516 52.3346 83.7941 52.5033 84.3428 52.8407C84.8915 53.1781 85.3175 53.6518 85.6208 54.2618C85.9241 54.8719 86.0758 55.5842 86.0758 56.3987C86.0758 57.2099 85.9241 57.9187 85.6208 58.5254C85.3175 59.132 84.8915 59.604 84.3428 59.9415C83.7941 60.2789 83.1516 60.4476 82.4155 60.4476ZM82.4206 59.1644C82.8977 59.1644 83.2931 59.0383 83.6066 58.7861C83.9202 58.5339 84.1519 58.1982 84.3019 57.779C84.4552 57.3598 84.5319 56.898 84.5319 56.3936C84.5319 55.8926 84.4552 55.4325 84.3019 55.0133C84.1519 54.5907 83.9202 54.2516 83.6066 53.996C83.2931 53.7404 82.8977 53.6126 82.4206 53.6126C81.9401 53.6126 81.5413 53.7404 81.2244 53.996C80.9108 54.2516 80.6774 54.5907 80.524 55.0133C80.374 55.4325 80.2991 55.8926 80.2991 56.3936C80.2991 56.898 80.374 57.3598 80.524 57.779C80.6774 58.1982 80.9108 58.5339 81.2244 58.7861C81.5413 59.0383 81.9401 59.1644 82.4206 59.1644ZM87.782 63.2337V52.4368H89.2747V53.7097H89.4025C89.4911 53.5461 89.619 53.357 89.786 53.1423C89.9529 52.9276 90.1847 52.7401 90.4812 52.5799C90.7777 52.4164 91.1696 52.3346 91.657 52.3346C92.2909 52.3346 92.8567 52.4947 93.3542 52.8151C93.8518 53.1355 94.242 53.5973 94.5249 54.2005C94.8112 54.8037 94.9543 55.5297 94.9543 56.3783C94.9543 57.2269 94.8129 57.9545 94.53 58.5612C94.2472 59.1644 93.8586 59.6296 93.3645 59.9568C92.8703 60.2806 92.3062 60.4424 91.6723 60.4424C91.1952 60.4424 90.805 60.3624 90.5017 60.2022C90.2017 60.042 89.9666 59.8545 89.7962 59.6398C89.6258 59.4251 89.4946 59.2343 89.4025 59.0673H89.3105V63.2337H87.782ZM89.2798 56.3629C89.2798 56.9151 89.3599 57.399 89.5201 57.8148C89.6803 58.2306 89.9121 58.5561 90.2154 58.7912C90.5187 59.023 90.8902 59.1388 91.3298 59.1388C91.7865 59.1388 92.1682 59.0179 92.4749 58.7759C92.7817 58.5305 93.0134 58.1982 93.1702 57.779C93.3304 57.3598 93.4105 56.8878 93.4105 56.3629C93.4105 55.8449 93.3321 55.3797 93.1753 54.9673C93.0219 54.5549 92.7902 54.2295 92.4801 53.9909C92.1733 53.7523 91.7899 53.633 91.3298 53.633C90.8868 53.633 90.5119 53.7472 90.2051 53.9756C89.9018 54.2039 89.6718 54.5226 89.515 54.9315C89.3582 55.3405 89.2798 55.8176 89.2798 56.3629ZM100.051 60.4476C99.2775 60.4476 98.6112 60.2823 98.0523 59.9517C97.4968 59.6177 97.0674 59.1491 96.764 58.5458C96.4641 57.9392 96.3142 57.2286 96.3142 56.4141C96.3142 55.6097 96.4641 54.9009 96.764 54.2874C97.0674 53.6739 97.49 53.1951 98.0319 52.8509C98.5772 52.5067 99.2145 52.3346 99.9438 52.3346C100.387 52.3346 100.816 52.4078 101.232 52.5544C101.648 52.7009 102.021 52.931 102.352 53.2445C102.682 53.5581 102.943 53.9653 103.134 54.4663C103.325 54.9639 103.42 55.5689 103.42 56.2811V56.823H97.1781V55.6779H101.922C101.922 55.2758 101.84 54.9196 101.677 54.6095C101.513 54.2959 101.283 54.0488 100.987 53.8682C100.694 53.6876 100.349 53.5973 99.954 53.5973C99.5246 53.5973 99.1497 53.7029 98.8294 53.9142C98.5124 54.1221 98.267 54.3948 98.0932 54.7322C97.9228 55.0662 97.8376 55.4291 97.8376 55.8211V56.7157C97.8376 57.2405 97.9296 57.687 98.1137 58.0551C98.3011 58.4231 98.5618 58.7043 98.8958 58.8986C99.2298 59.0894 99.62 59.1849 100.066 59.1849C100.356 59.1849 100.62 59.144 100.859 59.0622C101.097 58.977 101.304 58.8509 101.477 58.6839C101.651 58.5169 101.784 58.3107 101.876 58.0653L103.323 58.326C103.207 58.752 102.999 59.1252 102.699 59.4456C102.403 59.7625 102.03 60.0096 101.58 60.1868C101.133 60.3606 100.624 60.4476 100.051 60.4476ZM111 54.3539L109.615 54.5992C109.557 54.422 109.465 54.2533 109.339 54.0931C109.216 53.933 109.049 53.8017 108.838 53.6995C108.626 53.5973 108.362 53.5461 108.045 53.5461C107.612 53.5461 107.251 53.6433 106.962 53.8375C106.672 54.0284 106.527 54.2755 106.527 54.5788C106.527 54.8412 106.624 55.0525 106.818 55.2127C107.013 55.3729 107.326 55.5041 107.759 55.6063L109.006 55.8926C109.729 56.0596 110.267 56.3169 110.622 56.6646C110.976 57.0122 111.153 57.4638 111.153 58.0193C111.153 58.4896 111.017 58.9088 110.745 59.2769C110.475 59.6415 110.099 59.9278 109.615 60.1357C109.134 60.3436 108.577 60.4476 107.943 60.4476C107.064 60.4476 106.346 60.2601 105.791 59.8852C105.235 59.5069 104.895 58.9701 104.768 58.2749L106.246 58.05C106.338 58.4351 106.527 58.7265 106.813 58.9241C107.1 59.1184 107.473 59.2155 107.933 59.2155C108.434 59.2155 108.834 59.1116 109.134 58.9037C109.434 58.6924 109.584 58.4351 109.584 58.1317C109.584 57.8864 109.492 57.6802 109.308 57.5132C109.127 57.3462 108.85 57.2201 108.475 57.1349L107.146 56.8435C106.413 56.6765 105.871 56.4107 105.52 56.046C105.172 55.6813 104.998 55.2195 104.998 54.6606C104.998 54.1971 105.128 53.7915 105.387 53.4439C105.646 53.0963 106.004 52.8253 106.461 52.6311C106.917 52.4334 107.44 52.3346 108.03 52.3346C108.879 52.3346 109.547 52.5186 110.034 52.8867C110.521 53.2513 110.843 53.7404 111 54.3539Z" fill="#272727"/>
<path d="M23.3933 83.4308C21.3239 83.4308 19.6444 85.1103 19.6444 87.1797C19.6444 89.2491 21.3239 90.9286 23.3933 90.9286C25.4627 90.9286 27.1423 89.2491 27.1423 87.1797C27.1423 85.1103 25.4627 83.4308 23.3933 83.4308ZM23.3933 79.6819C19.2545 79.6819 15.8955 83.0409 15.8955 87.1797C15.8955 91.3185 19.2545 94.6776 23.3933 94.6776C27.5321 94.6776 30.8912 91.3185 30.8912 87.1797C30.8912 83.0409 27.5321 79.6819 23.3933 79.6819ZM23.3933 93.178C20.0793 93.178 17.3951 90.4938 17.3951 87.1797C17.3951 83.8657 20.0793 81.1815 23.3933 81.1815C26.7074 81.1815 29.3916 83.8657 29.3916 87.1797C29.3916 90.4938 26.7074 93.178 23.3933 93.178Z" fill="#C7C8CA"/>
<path d="M46.4489 84.9604C46.3944 84.4764 46.1694 84.1015 45.7741 83.8357C45.3788 83.5664 44.8812 83.4318 44.2813 83.4318C43.8519 83.4318 43.4804 83.5 43.1669 83.6363C42.8533 83.7692 42.6097 83.9533 42.4359 84.1884C42.2654 84.4202 42.1802 84.6843 42.1802 84.9808C42.1802 85.2296 42.2382 85.4443 42.3541 85.6249C42.4733 85.8056 42.6284 85.9572 42.8193 86.0799C43.0135 86.1992 43.2214 86.2997 43.4429 86.3815C43.6645 86.4599 43.8775 86.5247 44.082 86.5758L45.1044 86.8416C45.4384 86.9234 45.7809 87.0342 46.1319 87.1739C46.483 87.3137 46.8085 87.4977 47.1084 87.726C47.4083 87.9544 47.6503 88.2373 47.8343 88.5747C48.0217 88.9121 48.1155 89.3159 48.1155 89.7862C48.1155 90.3792 47.9621 90.9058 47.6554 91.3659C47.352 91.826 46.9107 92.189 46.3313 92.4548C45.7553 92.7206 45.0584 92.8535 44.2404 92.8535C43.4566 92.8535 42.7784 92.7291 42.2058 92.4803C41.6332 92.2316 41.1851 91.8788 40.8613 91.4221C40.5375 90.962 40.3586 90.4167 40.3245 89.7862H41.9093C41.94 90.1645 42.0627 90.4798 42.2774 90.732C42.4955 90.9808 42.7733 91.1665 43.1107 91.2892C43.4515 91.4085 43.8247 91.4681 44.2302 91.4681C44.6767 91.4681 45.0737 91.3983 45.4214 91.2585C45.7724 91.1154 46.0484 90.9177 46.2495 90.6655C46.4506 90.4099 46.5511 90.1117 46.5511 89.7709C46.5511 89.4608 46.4625 89.2069 46.2853 89.0092C46.1115 88.8115 45.8746 88.6479 45.5747 88.5184C45.2782 88.3889 44.9425 88.2747 44.5676 88.1759L43.3305 87.8385C42.4921 87.6102 41.8275 87.2745 41.3367 86.8314C40.8494 86.3884 40.6057 85.8022 40.6057 85.0728C40.6057 84.4696 40.7693 83.943 41.0965 83.4932C41.4236 83.0433 41.8667 82.694 42.4256 82.4452C42.9846 82.193 43.6151 82.0669 44.3171 82.0669C45.026 82.0669 45.6514 82.1913 46.1933 82.4401C46.7386 82.6889 47.168 83.0314 47.4816 83.4676C47.7951 83.9004 47.9587 84.398 47.9723 84.9604H46.4489ZM53.188 92.8382C52.428 92.8382 51.7736 92.6661 51.2249 92.3219C50.6796 91.9742 50.2604 91.4954 49.9673 90.8854C49.6742 90.2753 49.5277 89.5766 49.5277 88.7894C49.5277 87.9919 49.6777 87.2881 49.9776 86.678C50.2775 86.0646 50.7001 85.5857 51.2454 85.2415C51.7907 84.8973 52.4331 84.7252 53.1727 84.7252C53.7691 84.7252 54.3007 84.836 54.7677 85.0575C55.2346 85.2756 55.6112 85.5823 55.8974 85.9777C56.1871 86.373 56.3592 86.8348 56.4138 87.3631H54.9261C54.8443 86.995 54.6569 86.678 54.3638 86.4122C54.0741 86.1464 53.6856 86.0135 53.1982 86.0135C52.7722 86.0135 52.399 86.1259 52.0787 86.3509C51.7617 86.5724 51.5146 86.8893 51.3374 87.3017C51.1602 87.7107 51.0716 88.1947 51.0716 88.7536C51.0716 89.3261 51.1585 89.8203 51.3323 90.2361C51.5061 90.6519 51.7515 90.974 52.0684 91.2023C52.3888 91.4306 52.7654 91.5448 53.1982 91.5448C53.4879 91.5448 53.7503 91.492 53.9855 91.3863C54.2241 91.2773 54.4234 91.1222 54.5836 90.9211C54.7472 90.7201 54.8614 90.4781 54.9261 90.1952H56.4138C56.3592 90.703 56.194 91.1563 55.9179 91.555C55.6418 91.9538 55.2721 92.2673 54.8086 92.4957C54.3485 92.724 53.8083 92.8382 53.188 92.8382ZM61.356 92.8382C60.6198 92.8382 59.9774 92.6695 59.4287 92.3321C58.88 91.9947 58.454 91.5227 58.1506 90.916C57.8473 90.3094 57.6956 89.6005 57.6956 88.7894C57.6956 87.9748 57.8473 87.2625 58.1506 86.6525C58.454 86.0424 58.88 85.5687 59.4287 85.2313C59.9774 84.8939 60.6198 84.7252 61.356 84.7252C62.0921 84.7252 62.7345 84.8939 63.2832 85.2313C63.8319 85.5687 64.258 86.0424 64.5613 86.6525C64.8646 87.2625 65.0163 87.9748 65.0163 88.7894C65.0163 89.6005 64.8646 90.3094 64.5613 90.916C64.258 91.5227 63.8319 91.9947 63.2832 92.3321C62.7345 92.6695 62.0921 92.8382 61.356 92.8382ZM61.3611 91.555C61.8382 91.555 62.2335 91.4289 62.5471 91.1767C62.8606 90.9245 63.0924 90.5888 63.2423 90.1696C63.3957 89.7505 63.4724 89.2887 63.4724 88.7843C63.4724 88.2833 63.3957 87.8232 63.2423 87.404C63.0924 86.9814 62.8606 86.6423 62.5471 86.3866C62.2335 86.131 61.8382 86.0032 61.3611 86.0032C60.8805 86.0032 60.4818 86.131 60.1648 86.3866C59.8513 86.6423 59.6178 86.9814 59.4645 87.404C59.3145 87.8232 59.2395 88.2833 59.2395 88.7843C59.2395 89.2887 59.3145 89.7505 59.4645 90.1696C59.6178 90.5888 59.8513 90.9245 60.1648 91.1767C60.4818 91.4289 60.8805 91.555 61.3611 91.555ZM66.7224 95.6243V84.8274H68.2152V86.1004H68.343C68.4316 85.9368 68.5594 85.7476 68.7264 85.5329C68.8934 85.3182 69.1252 85.1308 69.4217 84.9706C69.7182 84.807 70.1101 84.7252 70.5975 84.7252C71.2314 84.7252 71.7971 84.8854 72.2947 85.2057C72.7923 85.5261 73.1825 85.9879 73.4654 86.5911C73.7517 87.1944 73.8948 87.9203 73.8948 88.7689C73.8948 89.6175 73.7534 90.3452 73.4705 90.9518C73.1876 91.555 72.7991 92.0202 72.3049 92.3474C71.8107 92.6712 71.2467 92.8331 70.6128 92.8331C70.1357 92.8331 69.7454 92.753 69.4421 92.5928C69.1422 92.4326 68.907 92.2452 68.7366 92.0305C68.5662 91.8158 68.435 91.6249 68.343 91.4579H68.251V95.6243H66.7224ZM68.2203 88.7536C68.2203 89.3057 68.3004 89.7896 68.4606 90.2054C68.6208 90.6212 68.8525 90.9467 69.1558 91.1819C69.4592 91.4136 69.8306 91.5295 70.2703 91.5295C70.727 91.5295 71.1087 91.4085 71.4154 91.1665C71.7221 90.9211 71.9539 90.5888 72.1107 90.1696C72.2708 89.7505 72.3509 89.2784 72.3509 88.7536C72.3509 88.2355 72.2725 87.7703 72.1158 87.358C71.9624 86.9456 71.7307 86.6201 71.4205 86.3815C71.1138 86.143 70.7304 86.0237 70.2703 86.0237C69.8272 86.0237 69.4523 86.1379 69.1456 86.3662C68.8423 86.5945 68.6122 86.9132 68.4555 87.3222C68.2987 87.7311 68.2203 88.2083 68.2203 88.7536ZM78.9916 92.8382C78.218 92.8382 77.5517 92.6729 76.9928 92.3423C76.4372 92.0083 76.0078 91.5397 75.7045 90.9365C75.4046 90.3298 75.2546 89.6192 75.2546 88.8047C75.2546 88.0004 75.4046 87.2915 75.7045 86.678C76.0078 86.0646 76.4304 85.5857 76.9723 85.2415C77.5176 84.8973 78.1549 84.7252 78.8843 84.7252C79.3273 84.7252 79.7567 84.7985 80.1725 84.945C80.5883 85.0916 80.9615 85.3216 81.2921 85.6352C81.6227 85.9487 81.8834 86.356 82.0743 86.857C82.2651 87.3546 82.3605 87.9595 82.3605 88.6718V89.2137H76.1186V88.0686H80.8627C80.8627 87.6664 80.7809 87.3102 80.6173 87.0001C80.4537 86.6866 80.2237 86.4395 79.9271 86.2588C79.6341 86.0782 79.2898 85.9879 78.8945 85.9879C78.4651 85.9879 78.0902 86.0936 77.7698 86.3049C77.4529 86.5127 77.2075 86.7854 77.0337 87.1228C76.8633 87.4568 76.7781 87.8198 76.7781 88.2117V89.1063C76.7781 89.6312 76.8701 90.0776 77.0541 90.4457C77.2416 90.8138 77.5023 91.0949 77.8363 91.2892C78.1703 91.4801 78.5605 91.5755 79.007 91.5755C79.2966 91.5755 79.5608 91.5346 79.7993 91.4528C80.0379 91.3676 80.2441 91.2415 80.4179 91.0745C80.5917 90.9075 80.7246 90.7013 80.8167 90.4559L82.2634 90.7166C82.1475 91.1427 81.9396 91.5158 81.6397 91.8362C81.3432 92.1532 80.97 92.4003 80.5202 92.5775C80.0737 92.7513 79.5642 92.8382 78.9916 92.8382ZM91.818 82.21V92.6797H90.2333V83.7948H90.1719L87.667 85.4307V83.9175L90.2793 82.21H91.818Z" fill="#272727"/>
<path d="M23.3933 115.821C21.3239 115.821 19.6444 117.501 19.6444 119.57C19.6444 121.64 21.3239 123.319 23.3933 123.319C25.4627 123.319 27.1423 121.64 27.1423 119.57C27.1423 117.501 25.4627 115.821 23.3933 115.821ZM23.3933 112.073C19.2545 112.073 15.8955 115.432 15.8955 119.57C15.8955 123.709 19.2545 127.068 23.3933 127.068C27.5321 127.068 30.8912 123.709 30.8912 119.57C30.8912 115.432 27.5321 112.073 23.3933 112.073ZM23.3933 125.569C20.0793 125.569 17.3951 122.884 17.3951 119.57C17.3951 116.256 20.0793 113.572 23.3933 113.572C26.7074 113.572 29.3916 116.256 29.3916 119.57C29.3916 122.884 26.7074 125.569 23.3933 125.569Z" fill="#C7C8CA"/>
<path d="M46.4489 117.351C46.3944 116.867 46.1694 116.492 45.7741 116.226C45.3788 115.957 44.8812 115.822 44.2813 115.822C43.8519 115.822 43.4804 115.891 43.1669 116.027C42.8533 116.16 42.6097 116.344 42.4359 116.579C42.2654 116.811 42.1802 117.075 42.1802 117.371C42.1802 117.62 42.2382 117.835 42.3541 118.016C42.4733 118.196 42.6284 118.348 42.8193 118.471C43.0135 118.59 43.2214 118.69 43.4429 118.772C43.6645 118.851 43.8775 118.915 44.082 118.966L45.1044 119.232C45.4384 119.314 45.7809 119.425 46.1319 119.565C46.483 119.704 46.8085 119.888 47.1084 120.117C47.4083 120.345 47.6503 120.628 47.8343 120.965C48.0217 121.303 48.1155 121.707 48.1155 122.177C48.1155 122.77 47.9621 123.296 47.6554 123.757C47.352 124.217 46.9107 124.58 46.3313 124.845C45.7553 125.111 45.0584 125.244 44.2404 125.244C43.4566 125.244 42.7784 125.12 42.2058 124.871C41.6332 124.622 41.1851 124.269 40.8613 123.813C40.5375 123.353 40.3586 122.807 40.3245 122.177H41.9093C41.94 122.555 42.0627 122.87 42.2774 123.123C42.4955 123.371 42.7733 123.557 43.1107 123.68C43.4515 123.799 43.8247 123.859 44.2302 123.859C44.6767 123.859 45.0737 123.789 45.4214 123.649C45.7724 123.506 46.0484 123.308 46.2495 123.056C46.4506 122.801 46.5511 122.502 46.5511 122.162C46.5511 121.851 46.4625 121.597 46.2853 121.4C46.1115 121.202 45.8746 121.039 45.5747 120.909C45.2782 120.78 44.9425 120.665 44.5676 120.567L43.3305 120.229C42.4921 120.001 41.8275 119.665 41.3367 119.222C40.8494 118.779 40.6057 118.193 40.6057 117.463C40.6057 116.86 40.7693 116.334 41.0965 115.884C41.4236 115.434 41.8667 115.085 42.4256 114.836C42.9846 114.584 43.6151 114.458 44.3171 114.458C45.026 114.458 45.6514 114.582 46.1933 114.831C46.7386 115.079 47.168 115.422 47.4816 115.858C47.7951 116.291 47.9587 116.789 47.9723 117.351H46.4489ZM53.188 125.229C52.428 125.229 51.7736 125.057 51.2249 124.713C50.6796 124.365 50.2604 123.886 49.9673 123.276C49.6742 122.666 49.5277 121.967 49.5277 121.18C49.5277 120.383 49.6777 119.679 49.9776 119.069C50.2775 118.455 50.7001 117.976 51.2454 117.632C51.7907 117.288 52.4331 117.116 53.1727 117.116C53.7691 117.116 54.3007 117.227 54.7677 117.448C55.2346 117.666 55.6112 117.973 55.8974 118.368C56.1871 118.764 56.3592 119.225 56.4138 119.754H54.9261C54.8443 119.386 54.6569 119.069 54.3638 118.803C54.0741 118.537 53.6856 118.404 53.1982 118.404C52.7722 118.404 52.399 118.517 52.0787 118.742C51.7617 118.963 51.5146 119.28 51.3374 119.692C51.1602 120.101 51.0716 120.585 51.0716 121.144C51.0716 121.717 51.1585 122.211 51.3323 122.627C51.5061 123.043 51.7515 123.365 52.0684 123.593C52.3888 123.821 52.7654 123.935 53.1982 123.935C53.4879 123.935 53.7503 123.883 53.9855 123.777C54.2241 123.668 54.4234 123.513 54.5836 123.312C54.7472 123.111 54.8614 122.869 54.9261 122.586H56.4138C56.3592 123.094 56.194 123.547 55.9179 123.946C55.6418 124.344 55.2721 124.658 54.8086 124.886C54.3485 125.115 53.8083 125.229 53.188 125.229ZM61.356 125.229C60.6198 125.229 59.9774 125.06 59.4287 124.723C58.88 124.385 58.454 123.913 58.1506 123.307C57.8473 122.7 57.6956 121.991 57.6956 121.18C57.6956 120.365 57.8473 119.653 58.1506 119.043C58.454 118.433 58.88 117.959 59.4287 117.622C59.9774 117.285 60.6198 117.116 61.356 117.116C62.0921 117.116 62.7345 117.285 63.2832 117.622C63.8319 117.959 64.258 118.433 64.5613 119.043C64.8646 119.653 65.0163 120.365 65.0163 121.18C65.0163 121.991 64.8646 122.7 64.5613 123.307C64.258 123.913 63.8319 124.385 63.2832 124.723C62.7345 125.06 62.0921 125.229 61.356 125.229ZM61.3611 123.946C61.8382 123.946 62.2335 123.82 62.5471 123.567C62.8606 123.315 63.0924 122.979 63.2423 122.56C63.3957 122.141 63.4724 121.679 63.4724 121.175C63.4724 120.674 63.3957 120.214 63.2423 119.795C63.0924 119.372 62.8606 119.033 62.5471 118.777C62.2335 118.522 61.8382 118.394 61.3611 118.394C60.8805 118.394 60.4818 118.522 60.1648 118.777C59.8513 119.033 59.6178 119.372 59.4645 119.795C59.3145 120.214 59.2395 120.674 59.2395 121.175C59.2395 121.679 59.3145 122.141 59.4645 122.56C59.6178 122.979 59.8513 123.315 60.1648 123.567C60.4818 123.82 60.8805 123.946 61.3611 123.946ZM66.7224 128.015V117.218H68.2152V118.491H68.343C68.4316 118.327 68.5594 118.138 68.7264 117.924C68.8934 117.709 69.1252 117.521 69.4217 117.361C69.7182 117.198 70.1101 117.116 70.5975 117.116C71.2314 117.116 71.7971 117.276 72.2947 117.596C72.7923 117.917 73.1825 118.379 73.4654 118.982C73.7517 119.585 73.8948 120.311 73.8948 121.16C73.8948 122.008 73.7534 122.736 73.4705 123.342C73.1876 123.946 72.7991 124.411 72.3049 124.738C71.8107 125.062 71.2467 125.224 70.6128 125.224C70.1357 125.224 69.7454 125.144 69.4421 124.983C69.1422 124.823 68.907 124.636 68.7366 124.421C68.5662 124.206 68.435 124.016 68.343 123.849H68.251V128.015H66.7224ZM68.2203 121.144C68.2203 121.696 68.3004 122.18 68.4606 122.596C68.6208 123.012 68.8525 123.337 69.1558 123.572C69.4592 123.804 69.8306 123.92 70.2703 123.92C70.727 123.92 71.1087 123.799 71.4154 123.557C71.7221 123.312 71.9539 122.979 72.1107 122.56C72.2708 122.141 72.3509 121.669 72.3509 121.144C72.3509 120.626 72.2725 120.161 72.1158 119.749C71.9624 119.336 71.7307 119.011 71.4205 118.772C71.1138 118.534 70.7304 118.414 70.2703 118.414C69.8272 118.414 69.4523 118.528 69.1456 118.757C68.8423 118.985 68.6122 119.304 68.4555 119.713C68.2987 120.122 68.2203 120.599 68.2203 121.144ZM78.9916 125.229C78.218 125.229 77.5517 125.064 76.9928 124.733C76.4372 124.399 76.0078 123.93 75.7045 123.327C75.4046 122.72 75.2546 122.01 75.2546 121.195C75.2546 120.391 75.4046 119.682 75.7045 119.069C76.0078 118.455 76.4304 117.976 76.9723 117.632C77.5176 117.288 78.1549 117.116 78.8843 117.116C79.3273 117.116 79.7567 117.189 80.1725 117.336C80.5883 117.482 80.9615 117.712 81.2921 118.026C81.6227 118.339 81.8834 118.747 82.0743 119.248C82.2651 119.745 82.3605 120.35 82.3605 121.062V121.604H76.1186V120.459H80.8627C80.8627 120.057 80.7809 119.701 80.6173 119.391C80.4537 119.077 80.2237 118.83 79.9271 118.649C79.6341 118.469 79.2898 118.379 78.8945 118.379C78.4651 118.379 78.0902 118.484 77.7698 118.695C77.4529 118.903 77.2075 119.176 77.0337 119.513C76.8633 119.847 76.7781 120.21 76.7781 120.602V121.497C76.7781 122.022 76.8701 122.468 77.0541 122.836C77.2416 123.204 77.5023 123.486 77.8363 123.68C78.1703 123.871 78.5605 123.966 79.007 123.966C79.2966 123.966 79.5608 123.925 79.7993 123.843C80.0379 123.758 80.2441 123.632 80.4179 123.465C80.5917 123.298 80.7246 123.092 80.8167 122.847L82.2634 123.107C82.1475 123.533 81.9396 123.906 81.6397 124.227C81.3432 124.544 80.97 124.791 80.5202 124.968C80.0737 125.142 79.5642 125.229 78.9916 125.229ZM87.8459 125.07V123.925L91.3886 120.255C91.7669 119.856 92.0788 119.507 92.3241 119.207C92.5729 118.903 92.7587 118.615 92.8814 118.343C93.0041 118.07 93.0654 117.78 93.0654 117.474C93.0654 117.126 92.9836 116.826 92.82 116.574C92.6564 116.318 92.4332 116.122 92.1503 115.986C91.8675 115.846 91.5488 115.776 91.1944 115.776C90.8195 115.776 90.4923 115.853 90.2128 116.006C89.9334 116.16 89.7186 116.376 89.5687 116.656C89.4187 116.935 89.3437 117.262 89.3437 117.637H87.8357C87.8357 117 87.9822 116.443 88.2753 115.966C88.5684 115.488 88.9706 115.119 89.4818 114.856C89.993 114.59 90.5741 114.458 91.225 114.458C91.8828 114.458 92.4622 114.589 92.9632 114.851C93.4676 115.11 93.8612 115.465 94.1441 115.914C94.4269 116.361 94.5684 116.865 94.5684 117.428C94.5684 117.816 94.4951 118.196 94.3486 118.568C94.2054 118.939 93.9549 119.353 93.5971 119.81C93.2392 120.263 92.7416 120.814 92.1043 121.461L90.0237 123.639V123.716H94.7371V125.07H87.8459Z" fill="#272727"/>
<path d="M23.3933 148.212C21.3239 148.212 19.6444 149.892 19.6444 151.961C19.6444 154.03 21.3239 155.71 23.3933 155.71C25.4627 155.71 27.1423 154.03 27.1423 151.961C27.1423 149.892 25.4627 148.212 23.3933 148.212ZM23.3933 144.463C19.2545 144.463 15.8955 147.822 15.8955 151.961C15.8955 156.1 19.2545 159.459 23.3933 159.459C27.5321 159.459 30.8912 156.1 30.8912 151.961C30.8912 147.822 27.5321 144.463 23.3933 144.463ZM23.3933 157.959C20.0793 157.959 17.3951 155.275 17.3951 151.961C17.3951 148.647 20.0793 145.963 23.3933 145.963C26.7074 145.963 29.3916 148.647 29.3916 151.961C29.3916 155.275 26.7074 157.959 23.3933 157.959Z" fill="#C7C8CA"/>
<path d="M46.4489 149.742C46.3944 149.258 46.1694 148.883 45.7741 148.617C45.3788 148.348 44.8812 148.213 44.2813 148.213C43.8519 148.213 43.4804 148.281 43.1669 148.418C42.8533 148.55 42.6097 148.735 42.4359 148.97C42.2654 149.201 42.1802 149.466 42.1802 149.762C42.1802 150.011 42.2382 150.226 42.3541 150.406C42.4733 150.587 42.6284 150.739 42.8193 150.861C43.0135 150.98 43.2214 151.081 43.4429 151.163C43.6645 151.241 43.8775 151.306 44.082 151.357L45.1044 151.623C45.4384 151.705 45.7809 151.815 46.1319 151.955C46.483 152.095 46.8085 152.279 47.1084 152.507C47.4083 152.736 47.6503 153.019 47.8343 153.356C48.0217 153.693 48.1155 154.097 48.1155 154.568C48.1155 155.161 47.9621 155.687 47.6554 156.147C47.352 156.607 46.9107 156.97 46.3313 157.236C45.7553 157.502 45.0584 157.635 44.2404 157.635C43.4566 157.635 42.7784 157.51 42.2058 157.262C41.6332 157.013 41.1851 156.66 40.8613 156.203C40.5375 155.743 40.3586 155.198 40.3245 154.568H41.9093C41.94 154.946 42.0627 155.261 42.2774 155.513C42.4955 155.762 42.7733 155.948 43.1107 156.07C43.4515 156.19 43.8247 156.249 44.2302 156.249C44.6767 156.249 45.0737 156.18 45.4214 156.04C45.7724 155.897 46.0484 155.699 46.2495 155.447C46.4506 155.191 46.5511 154.893 46.5511 154.552C46.5511 154.242 46.4625 153.988 46.2853 153.79C46.1115 153.593 45.8746 153.429 45.5747 153.3C45.2782 153.17 44.9425 153.056 44.5676 152.957L43.3305 152.62C42.4921 152.391 41.8275 152.056 41.3367 151.613C40.8494 151.17 40.6057 150.583 40.6057 149.854C40.6057 149.251 40.7693 148.724 41.0965 148.274C41.4236 147.825 41.8667 147.475 42.4256 147.226C42.9846 146.974 43.6151 146.848 44.3171 146.848C45.026 146.848 45.6514 146.973 46.1933 147.221C46.7386 147.47 47.168 147.813 47.4816 148.249C47.7951 148.682 47.9587 149.179 47.9723 149.742H46.4489ZM53.188 157.619C52.428 157.619 51.7736 157.447 51.2249 157.103C50.6796 156.756 50.2604 156.277 49.9673 155.667C49.6742 155.057 49.5277 154.358 49.5277 153.571C49.5277 152.773 49.6777 152.069 49.9776 151.459C50.2775 150.846 50.7001 150.367 51.2454 150.023C51.7907 149.679 52.4331 149.506 53.1727 149.506C53.7691 149.506 54.3007 149.617 54.7677 149.839C55.2346 150.057 55.6112 150.364 55.8974 150.759C56.1871 151.154 56.3592 151.616 56.4138 152.144H54.9261C54.8443 151.776 54.6569 151.459 54.3638 151.193C54.0741 150.928 53.6856 150.795 53.1982 150.795C52.7722 150.795 52.399 150.907 52.0787 151.132C51.7617 151.354 51.5146 151.671 51.3374 152.083C51.1602 152.492 51.0716 152.976 51.0716 153.535C51.0716 154.107 51.1585 154.602 51.3323 155.017C51.5061 155.433 51.7515 155.755 52.0684 155.984C52.3888 156.212 52.7654 156.326 53.1982 156.326C53.4879 156.326 53.7503 156.273 53.9855 156.168C54.2241 156.059 54.4234 155.903 54.5836 155.702C54.7472 155.501 54.8614 155.259 54.9261 154.976H56.4138C56.3592 155.484 56.194 155.938 55.9179 156.336C55.6418 156.735 55.2721 157.049 54.8086 157.277C54.3485 157.505 53.8083 157.619 53.188 157.619ZM61.356 157.619C60.6198 157.619 59.9774 157.451 59.4287 157.113C58.88 156.776 58.454 156.304 58.1506 155.697C57.8473 155.091 57.6956 154.382 57.6956 153.571C57.6956 152.756 57.8473 152.044 58.1506 151.434C58.454 150.824 58.88 150.35 59.4287 150.013C59.9774 149.675 60.6198 149.506 61.356 149.506C62.0921 149.506 62.7345 149.675 63.2832 150.013C63.8319 150.35 64.258 150.824 64.5613 151.434C64.8646 152.044 65.0163 152.756 65.0163 153.571C65.0163 154.382 64.8646 155.091 64.5613 155.697C64.258 156.304 63.8319 156.776 63.2832 157.113C62.7345 157.451 62.0921 157.619 61.356 157.619ZM61.3611 156.336C61.8382 156.336 62.2335 156.21 62.5471 155.958C62.8606 155.706 63.0924 155.37 63.2423 154.951C63.3957 154.532 63.4724 154.07 63.4724 153.566C63.4724 153.065 63.3957 152.604 63.2423 152.185C63.0924 151.763 62.8606 151.424 62.5471 151.168C62.2335 150.912 61.8382 150.785 61.3611 150.785C60.8805 150.785 60.4818 150.912 60.1648 151.168C59.8513 151.424 59.6178 151.763 59.4645 152.185C59.3145 152.604 59.2395 153.065 59.2395 153.566C59.2395 154.07 59.3145 154.532 59.4645 154.951C59.6178 155.37 59.8513 155.706 60.1648 155.958C60.4818 156.21 60.8805 156.336 61.3611 156.336ZM66.7224 160.406V149.609H68.2152V150.882H68.343C68.4316 150.718 68.5594 150.529 68.7264 150.314C68.8934 150.099 69.1252 149.912 69.4217 149.752C69.7182 149.588 70.1101 149.506 70.5975 149.506C71.2314 149.506 71.7971 149.667 72.2947 149.987C72.7923 150.307 73.1825 150.769 73.4654 151.372C73.7517 151.976 73.8948 152.702 73.8948 153.55C73.8948 154.399 73.7534 155.126 73.4705 155.733C73.1876 156.336 72.7991 156.802 72.3049 157.129C71.8107 157.452 71.2467 157.614 70.6128 157.614C70.1357 157.614 69.7454 157.534 69.4421 157.374C69.1422 157.214 68.907 157.026 68.7366 156.812C68.5662 156.597 68.435 156.406 68.343 156.239H68.251V160.406H66.7224ZM68.2203 153.535C68.2203 154.087 68.3004 154.571 68.4606 154.987C68.6208 155.402 68.8525 155.728 69.1558 155.963C69.4592 156.195 69.8306 156.311 70.2703 156.311C70.727 156.311 71.1087 156.19 71.4154 155.948C71.7221 155.702 71.9539 155.37 72.1107 154.951C72.2708 154.532 72.3509 154.06 72.3509 153.535C72.3509 153.017 72.2725 152.552 72.1158 152.139C71.9624 151.727 71.7307 151.401 71.4205 151.163C71.1138 150.924 70.7304 150.805 70.2703 150.805C69.8272 150.805 69.4523 150.919 69.1456 151.147C68.8423 151.376 68.6122 151.694 68.4555 152.103C68.2987 152.512 68.2203 152.99 68.2203 153.535ZM78.9916 157.619C78.218 157.619 77.5517 157.454 76.9928 157.124C76.4372 156.79 76.0078 156.321 75.7045 155.718C75.4046 155.111 75.2546 154.401 75.2546 153.586C75.2546 152.782 75.4046 152.073 75.7045 151.459C76.0078 150.846 76.4304 150.367 76.9723 150.023C77.5176 149.679 78.1549 149.506 78.8843 149.506C79.3273 149.506 79.7567 149.58 80.1725 149.726C80.5883 149.873 80.9615 150.103 81.2921 150.416C81.6227 150.73 81.8834 151.137 82.0743 151.638C82.2651 152.136 82.3605 152.741 82.3605 153.453V153.995H76.1186V152.85H80.8627C80.8627 152.448 80.7809 152.092 80.6173 151.781C80.4537 151.468 80.2237 151.221 79.9271 151.04C79.6341 150.859 79.2898 150.769 78.8945 150.769C78.4651 150.769 78.0902 150.875 77.7698 151.086C77.4529 151.294 77.2075 151.567 77.0337 151.904C76.8633 152.238 76.7781 152.601 76.7781 152.993V153.888C76.7781 154.412 76.8701 154.859 77.0541 155.227C77.2416 155.595 77.5023 155.876 77.8363 156.07C78.1703 156.261 78.5605 156.357 79.007 156.357C79.2966 156.357 79.5608 156.316 79.7993 156.234C80.0379 156.149 80.2441 156.023 80.4179 155.856C80.5917 155.689 80.7246 155.483 80.8167 155.237L82.2634 155.498C82.1475 155.924 81.9396 156.297 81.6397 156.617C81.3432 156.934 80.97 157.182 80.5202 157.359C80.0737 157.533 79.5642 157.619 78.9916 157.619ZM91.4909 157.604C90.7888 157.604 90.1617 157.483 89.6096 157.241C89.0609 156.999 88.6263 156.663 88.306 156.234C87.989 155.801 87.8186 155.3 87.7948 154.731H89.4C89.4204 155.041 89.5244 155.31 89.7118 155.539C89.9027 155.764 90.1515 155.938 90.4582 156.06C90.7649 156.183 91.1057 156.244 91.4806 156.244C91.893 156.244 92.2577 156.173 92.5746 156.03C92.895 155.886 93.1455 155.687 93.3261 155.431C93.5068 155.172 93.5971 154.874 93.5971 154.537C93.5971 154.186 93.5068 153.877 93.3261 153.612C93.1489 153.342 92.8882 153.131 92.544 152.978C92.2032 152.824 91.7908 152.748 91.3068 152.748H90.4224V151.459H91.3068C91.6953 151.459 92.0362 151.389 92.3293 151.25C92.6258 151.11 92.8575 150.916 93.0245 150.667C93.1915 150.415 93.275 150.12 93.275 149.783C93.275 149.459 93.2017 149.178 93.0552 148.939C92.912 148.697 92.7076 148.508 92.4417 148.372C92.1793 148.235 91.8692 148.167 91.5113 148.167C91.1705 148.167 90.8518 148.23 90.5553 148.356C90.2622 148.479 90.0237 148.656 89.8396 148.888C89.6556 149.116 89.5568 149.391 89.5431 149.711H88.0146C88.0316 149.145 88.1986 148.648 88.5156 148.218C88.8359 147.789 89.2585 147.453 89.7834 147.211C90.3082 146.969 90.891 146.848 91.5318 146.848C92.2032 146.848 92.7825 146.979 93.2699 147.242C93.7607 147.501 94.139 147.847 94.4048 148.28C94.674 148.712 94.8069 149.186 94.8035 149.701C94.8069 150.287 94.6434 150.785 94.3128 151.193C93.9856 151.602 93.5494 151.877 93.0041 152.017V152.098C93.6993 152.204 94.2378 152.48 94.6195 152.927C95.0046 153.373 95.1955 153.927 95.1921 154.588C95.1955 155.164 95.0353 155.68 94.7115 156.137C94.3912 156.594 93.9532 156.953 93.3977 157.216C92.8422 157.475 92.2066 157.604 91.4909 157.604Z" fill="#272727"/>
<path d="M15.546 189.354V178.885H17.1256V183.884H17.2534L21.6448 178.885H23.6334L19.4108 183.598L23.6488 189.354H21.747L18.3628 184.677L17.1256 186.098V189.354H15.546ZM27.7909 189.513C27.0172 189.513 26.351 189.347 25.792 189.017C25.2365 188.683 24.8071 188.214 24.5038 187.611C24.2039 187.004 24.0539 186.294 24.0539 185.479C24.0539 184.675 24.2039 183.966 24.5038 183.353C24.8071 182.739 25.2297 182.26 25.7716 181.916C26.3169 181.572 26.9542 181.4 27.6835 181.4C28.1266 181.4 28.556 181.473 28.9718 181.62C29.3876 181.766 29.7608 181.996 30.0914 182.31C30.4219 182.623 30.6827 183.03 30.8735 183.531C31.0644 184.029 31.1598 184.634 31.1598 185.346V185.888H24.9179V184.743H29.6619C29.6619 184.341 29.5801 183.985 29.4166 183.675C29.253 183.361 29.0229 183.114 28.7264 182.933C28.4333 182.753 28.0891 182.662 27.6938 182.662C27.2643 182.662 26.8894 182.768 26.5691 182.979C26.2521 183.187 26.0067 183.46 25.8329 183.797C25.6625 184.131 25.5773 184.494 25.5773 184.886V185.781C25.5773 186.306 25.6693 186.752 25.8534 187.12C26.0408 187.488 26.3015 187.769 26.6355 187.964C26.9695 188.155 27.3598 188.25 27.8062 188.25C28.0959 188.25 28.36 188.209 28.5986 188.127C28.8372 188.042 29.0434 187.916 29.2172 187.749C29.391 187.582 29.5239 187.376 29.6159 187.13L31.0627 187.391C30.9468 187.817 30.7389 188.19 30.439 188.511C30.1425 188.828 29.7693 189.075 29.3194 189.252C28.873 189.426 28.3634 189.513 27.7909 189.513ZM33.597 192.299C33.3687 192.299 33.1608 192.28 32.9733 192.243C32.7859 192.209 32.6462 192.171 32.5541 192.13L32.9222 190.878C33.2017 190.953 33.4505 190.985 33.6686 190.975C33.8867 190.965 34.0793 190.883 34.2463 190.729C34.4167 190.576 34.5666 190.326 34.6961 189.978L34.8853 189.456L32.0123 181.502H33.6481L35.6368 187.596H35.7186L37.7072 181.502H39.3482L36.1122 190.402C35.9622 190.811 35.7714 191.157 35.5396 191.44C35.3079 191.726 35.0318 191.941 34.7115 192.084C34.3911 192.227 34.0196 192.299 33.597 192.299Z" fill="#272727"/>
<path d="M23.3933 208.25C19.247 208.25 15.8955 211.601 15.8955 215.747C15.8955 219.894 19.247 223.245 23.3933 223.245C27.5396 223.245 30.8912 219.894 30.8912 215.747C30.8912 211.601 27.5396 208.25 23.3933 208.25ZM23.3933 221.746C20.0793 221.746 17.3951 219.062 17.3951 215.747C17.3951 212.433 20.0793 209.749 23.3933 209.749C26.7074 209.749 29.3916 212.433 29.3916 215.747C29.3916 219.062 26.7074 221.746 23.3933 221.746Z" fill="#272727"/>
<path d="M40.7386 221.247V210.778H42.3183V215.328H47.5378V210.778H49.1226V221.247H47.5378V216.682H42.3183V221.247H40.7386ZM51.3003 221.247V213.395H52.8289V221.247H51.3003ZM52.0723 212.184C51.8064 212.184 51.5781 212.095 51.3872 211.918C51.1998 211.737 51.1061 211.522 51.1061 211.274C51.1061 211.021 51.1998 210.807 51.3872 210.63C51.5781 210.449 51.8064 210.359 52.0723 210.359C52.3381 210.359 52.5647 210.449 52.7522 210.63C52.943 210.807 53.0385 211.021 53.0385 211.274C53.0385 211.522 52.943 211.737 52.7522 211.918C52.5647 212.095 52.3381 212.184 52.0723 212.184ZM60.7693 215.312L59.3839 215.558C59.326 215.38 59.234 215.212 59.1079 215.052C58.9852 214.891 58.8182 214.76 58.6069 214.658C58.3956 214.556 58.1315 214.505 57.8145 214.505C57.3817 214.505 57.0204 214.602 56.7307 214.796C56.441 214.987 56.2962 215.234 56.2962 215.537C56.2962 215.8 56.3933 216.011 56.5876 216.171C56.7818 216.331 57.0954 216.462 57.5282 216.565L58.7756 216.851C59.4981 217.018 60.0366 217.275 60.391 217.623C60.7455 217.971 60.9227 218.422 60.9227 218.978C60.9227 219.448 60.7864 219.867 60.5137 220.235C60.2445 220.6 59.8679 220.886 59.3839 221.094C58.9034 221.302 58.3462 221.406 57.7123 221.406C56.833 221.406 56.1156 221.219 55.56 220.844C55.0045 220.465 54.6637 219.929 54.5376 219.233L56.015 219.008C56.107 219.393 56.2962 219.685 56.5825 219.883C56.8688 220.077 57.2419 220.174 57.702 220.174C58.203 220.174 58.6035 220.07 58.9034 219.862C59.2033 219.651 59.3533 219.393 59.3533 219.09C59.3533 218.845 59.2612 218.639 59.0772 218.472C58.8966 218.305 58.6188 218.178 58.2439 218.093L56.9148 217.802C56.182 217.635 55.6401 217.369 55.2891 217.004C54.9415 216.64 54.7677 216.178 54.7677 215.619C54.7677 215.155 54.8972 214.75 55.1562 214.402C55.4152 214.055 55.773 213.784 56.2297 213.589C56.6864 213.392 57.2096 213.293 57.7992 213.293C58.6478 213.293 59.3158 213.477 59.8031 213.845C60.2905 214.21 60.6126 214.699 60.7693 215.312ZM66.2687 213.395V214.622H61.9796V213.395H66.2687ZM63.1299 211.514H64.6584V218.942C64.6584 219.238 64.7027 219.462 64.7913 219.612C64.8799 219.758 64.9941 219.859 65.1338 219.913C65.277 219.964 65.432 219.99 65.599 219.99C65.7217 219.99 65.8291 219.981 65.9211 219.964C66.0131 219.947 66.0847 219.934 66.1358 219.923L66.4119 221.186C66.3233 221.22 66.1972 221.254 66.0336 221.288C65.87 221.326 65.6655 221.346 65.4201 221.35C65.018 221.357 64.6431 221.285 64.2954 221.135C63.9478 220.985 63.6666 220.753 63.4519 220.44C63.2372 220.126 63.1299 219.733 63.1299 219.259V211.514ZM71.1828 221.406C70.4467 221.406 69.8042 221.237 69.2555 220.9C68.7068 220.562 68.2808 220.09 67.9775 219.484C67.6742 218.877 67.5225 218.168 67.5225 217.357C67.5225 216.543 67.6742 215.83 67.9775 215.22C68.2808 214.61 68.7068 214.136 69.2555 213.799C69.8042 213.462 70.4467 213.293 71.1828 213.293C71.919 213.293 72.5614 213.462 73.1101 213.799C73.6588 214.136 74.0848 214.61 74.3881 215.22C74.6914 215.83 74.8431 216.543 74.8431 217.357C74.8431 218.168 74.6914 218.877 74.3881 219.484C74.0848 220.09 73.6588 220.562 73.1101 220.9C72.5614 221.237 71.919 221.406 71.1828 221.406ZM71.1879 220.123C71.665 220.123 72.0604 219.997 72.3739 219.744C72.6875 219.492 72.9192 219.157 73.0692 218.737C73.2226 218.318 73.2992 217.856 73.2992 217.352C73.2992 216.851 73.2226 216.391 73.0692 215.972C72.9192 215.549 72.6875 215.21 72.3739 214.954C72.0604 214.699 71.665 214.571 71.1879 214.571C70.7074 214.571 70.3086 214.699 69.9917 214.954C69.6781 215.21 69.4447 215.549 69.2913 215.972C69.1413 216.391 69.0664 216.851 69.0664 217.352C69.0664 217.856 69.1413 218.318 69.2913 218.737C69.4447 219.157 69.6781 219.492 69.9917 219.744C70.3086 219.997 70.7074 220.123 71.1879 220.123ZM76.5493 221.247V213.395H78.0267V214.643H78.1085C78.2516 214.22 78.5038 213.888 78.8651 213.646C79.2298 213.4 79.6421 213.278 80.1022 213.278C80.1977 213.278 80.3101 213.281 80.4396 213.288C80.5726 213.295 80.6765 213.303 80.7515 213.313V214.775C80.6901 214.758 80.5811 214.74 80.4243 214.719C80.2675 214.695 80.1108 214.683 79.954 214.683C79.5927 214.683 79.2707 214.76 78.9878 214.914C78.7083 215.063 78.4868 215.273 78.3232 215.542C78.1596 215.808 78.0778 216.111 78.0778 216.452V221.247H76.5493ZM82.0743 221.247V213.395H83.6028V221.247H82.0743ZM82.8462 212.184C82.5804 212.184 82.352 212.095 82.1612 211.918C81.9737 211.737 81.88 211.522 81.88 211.274C81.88 211.021 81.9737 210.807 82.1612 210.63C82.352 210.449 82.5804 210.359 82.8462 210.359C83.112 210.359 83.3387 210.449 83.5261 210.63C83.717 210.807 83.8124 211.021 83.8124 211.274C83.8124 211.522 83.717 211.737 83.5261 211.918C83.3387 212.095 83.112 212.184 82.8462 212.184ZM88.9667 221.406C88.2067 221.406 87.5524 221.234 87.0037 220.89C86.4584 220.542 86.0392 220.063 85.7461 219.453C85.453 218.843 85.3064 218.144 85.3064 217.357C85.3064 216.56 85.4564 215.856 85.7563 215.246C86.0562 214.632 86.4788 214.154 87.0241 213.809C87.5694 213.465 88.2118 213.293 88.9514 213.293C89.5478 213.293 90.0795 213.404 90.5464 213.625C91.0133 213.843 91.3899 214.15 91.6762 214.545C91.9659 214.941 92.138 215.403 92.1925 215.931H90.7049C90.6231 215.563 90.4356 215.246 90.1425 214.98C89.8528 214.714 89.4643 214.581 88.977 214.581C88.5509 214.581 88.1777 214.694 87.8574 214.919C87.5404 215.14 87.2933 215.457 87.1161 215.869C86.9389 216.278 86.8503 216.762 86.8503 217.321C86.8503 217.894 86.9372 218.388 87.111 218.804C87.2848 219.22 87.5302 219.542 87.8472 219.77C88.1675 219.998 88.5441 220.113 88.977 220.113C89.2666 220.113 89.5291 220.06 89.7642 219.954C90.0028 219.845 90.2022 219.69 90.3623 219.489C90.5259 219.288 90.6401 219.046 90.7049 218.763H92.1925C92.138 219.271 91.9727 219.724 91.6966 220.123C91.4206 220.522 91.0508 220.835 90.5873 221.063C90.1272 221.292 89.587 221.406 88.9667 221.406ZM96.1122 221.421C95.6147 221.421 95.1648 221.329 94.7626 221.145C94.3605 220.958 94.0418 220.687 93.8067 220.332C93.5749 219.978 93.459 219.543 93.459 219.029C93.459 218.586 93.5442 218.221 93.7146 217.935C93.8851 217.649 94.1151 217.422 94.4048 217.255C94.6945 217.088 95.0182 216.962 95.3761 216.877C95.7339 216.791 96.0986 216.727 96.4701 216.682C96.9404 216.628 97.3221 216.583 97.6152 216.549C97.9083 216.512 98.1213 216.452 98.2542 216.37C98.3872 216.289 98.4536 216.156 98.4536 215.972V215.936C98.4536 215.489 98.3275 215.144 98.0753 214.898C97.8265 214.653 97.455 214.53 96.9609 214.53C96.4462 214.53 96.0407 214.644 95.7442 214.873C95.4511 215.098 95.2483 215.348 95.1358 215.624L93.6993 215.297C93.8697 214.82 94.1185 214.435 94.4457 214.142C94.7763 213.845 95.1563 213.63 95.5857 213.497C96.0151 213.361 96.4667 213.293 96.9404 213.293C97.254 213.293 97.5863 213.33 97.9373 213.405C98.2917 213.477 98.6223 213.61 98.929 213.804C99.2392 213.998 99.4931 214.276 99.6908 214.637C99.8884 214.995 99.9873 215.461 99.9873 216.033V221.247H98.4945V220.174H98.4332C98.3343 220.372 98.1861 220.566 97.9884 220.757C97.7907 220.948 97.5368 221.106 97.2267 221.232C96.9166 221.358 96.5451 221.421 96.1122 221.421ZM96.4445 220.194C96.8671 220.194 97.2284 220.111 97.5283 219.944C97.8316 219.777 98.0617 219.559 98.2185 219.29C98.3786 219.017 98.4587 218.725 98.4587 218.415V217.403C98.4042 217.458 98.2985 217.509 98.1418 217.556C97.9884 217.601 97.8129 217.64 97.6152 217.674C97.4176 217.705 97.225 217.734 97.0375 217.761C96.8501 217.785 96.6933 217.805 96.5672 217.822C96.2707 217.86 95.9998 217.923 95.7544 218.011C95.5124 218.1 95.3182 218.228 95.1716 218.395C95.0285 218.558 94.9569 218.777 94.9569 219.049C94.9569 219.428 95.0966 219.714 95.3761 219.908C95.6556 220.099 96.0117 220.194 96.4445 220.194ZM103.552 210.778V221.247H102.023V210.778H103.552Z" fill="#272727"/>
<path d="M23.3933 240.64C19.247 240.64 15.8955 243.992 15.8955 248.138C15.8955 252.284 19.247 255.636 23.3933 255.636C27.5396 255.636 30.8912 252.284 30.8912 248.138C30.8912 243.992 27.5396 240.64 23.3933 240.64ZM23.3933 254.136C20.0793 254.136 17.3951 251.452 17.3951 248.138C17.3951 244.824 20.0793 242.14 23.3933 242.14C26.7074 242.14 29.3916 244.824 29.3916 248.138C29.3916 251.452 26.7074 254.136 23.3933 254.136Z" fill="#2B6ACB"/>
<path d="M40.7386 253.638V243.168H47.2311V244.528H42.3183V247.718H46.7659V249.073H42.3183V253.638H40.7386ZM51.7822 253.797C51.046 253.797 50.4036 253.628 49.8549 253.29C49.3062 252.953 48.8802 252.481 48.5768 251.874C48.2735 251.268 48.1219 250.559 48.1219 249.748C48.1219 248.933 48.2735 248.221 48.5768 247.611C48.8802 247.001 49.3062 246.527 49.8549 246.19C50.4036 245.852 51.046 245.684 51.7822 245.684C52.5183 245.684 53.1607 245.852 53.7094 246.19C54.2581 246.527 54.6842 247.001 54.9875 247.611C55.2908 248.221 55.4425 248.933 55.4425 249.748C55.4425 250.559 55.2908 251.268 54.9875 251.874C54.6842 252.481 54.2581 252.953 53.7094 253.29C53.1607 253.628 52.5183 253.797 51.7822 253.797ZM51.7873 252.513C52.2644 252.513 52.6597 252.387 52.9733 252.135C53.2868 251.883 53.5186 251.547 53.6685 251.128C53.8219 250.709 53.8986 250.247 53.8986 249.743C53.8986 249.242 53.8219 248.782 53.6685 248.362C53.5186 247.94 53.2868 247.601 52.9733 247.345C52.6597 247.089 52.2644 246.962 51.7873 246.962C51.3067 246.962 50.908 247.089 50.591 247.345C50.2775 247.601 50.044 247.94 49.8907 248.362C49.7407 248.782 49.6657 249.242 49.6657 249.743C49.6657 250.247 49.7407 250.709 49.8907 251.128C50.044 251.547 50.2775 251.883 50.591 252.135C50.908 252.387 51.3067 252.513 51.7873 252.513ZM57.1486 253.638V245.786H58.6261V247.033H58.7079C58.851 246.611 59.1032 246.278 59.4645 246.036C59.8291 245.791 60.2415 245.668 60.7016 245.668C60.797 245.668 60.9095 245.672 61.039 245.678C61.1719 245.685 61.2759 245.694 61.3508 245.704V247.166C61.2895 247.149 61.1804 247.13 61.0237 247.11C60.8669 247.086 60.7101 247.074 60.5533 247.074C60.1921 247.074 59.87 247.151 59.5871 247.304C59.3077 247.454 59.0862 247.664 58.9226 247.933C58.759 248.199 58.6772 248.502 58.6772 248.843V253.638H57.1486ZM65.7767 253.797C65.0031 253.797 64.3368 253.631 63.7778 253.301C63.2223 252.967 62.7929 252.498 62.4896 251.895C62.1897 251.288 62.0397 250.578 62.0397 249.763C62.0397 248.959 62.1897 248.25 62.4896 247.636C62.7929 247.023 63.2155 246.544 63.7574 246.2C64.3027 245.856 64.94 245.684 65.6693 245.684C66.1124 245.684 66.5418 245.757 66.9576 245.903C67.3734 246.05 67.7466 246.28 68.0772 246.594C68.4078 246.907 68.6685 247.314 68.8593 247.815C69.0502 248.313 69.1456 248.918 69.1456 249.63V250.172H62.9037V249.027H67.6477C67.6477 248.625 67.5659 248.269 67.4024 247.959C67.2388 247.645 67.0087 247.398 66.7122 247.217C66.4191 247.037 66.0749 246.946 65.6796 246.946C65.2501 246.946 64.8752 247.052 64.5549 247.263C64.2379 247.471 63.9925 247.744 63.8187 248.081C63.6483 248.415 63.5631 248.778 63.5631 249.17V250.065C63.5631 250.59 63.6551 251.036 63.8392 251.404C64.0266 251.772 64.2873 252.053 64.6213 252.248C64.9553 252.438 65.3456 252.534 65.792 252.534C66.0817 252.534 66.3458 252.493 66.5844 252.411C66.823 252.326 67.0292 252.2 67.203 252.033C67.3768 251.866 67.5097 251.66 67.6017 251.414L69.0485 251.675C68.9326 252.101 68.7247 252.474 68.4248 252.795C68.1283 253.112 67.7551 253.359 67.3052 253.536C66.8588 253.71 66.3493 253.797 65.7767 253.797ZM74.1491 253.797C73.3891 253.797 72.7348 253.624 72.1861 253.28C71.6408 252.933 71.2216 252.454 70.9285 251.844C70.6354 251.234 70.4888 250.535 70.4888 249.748C70.4888 248.95 70.6388 248.246 70.9387 247.636C71.2386 247.023 71.6612 246.544 72.2065 246.2C72.7518 245.856 73.3942 245.684 74.1338 245.684C74.7302 245.684 75.2619 245.794 75.7288 246.016C76.1957 246.234 76.5723 246.541 76.8586 246.936C77.1483 247.331 77.3204 247.793 77.3749 248.321H75.8873C75.8055 247.953 75.618 247.636 75.3249 247.371C75.0352 247.105 74.6467 246.972 74.1594 246.972C73.7333 246.972 73.3602 247.084 73.0398 247.309C72.7228 247.531 72.4758 247.848 72.2985 248.26C72.1213 248.669 72.0327 249.153 72.0327 249.712C72.0327 250.285 72.1196 250.779 72.2934 251.195C72.4672 251.61 72.7126 251.932 73.0296 252.161C73.3499 252.389 73.7265 252.503 74.1594 252.503C74.449 252.503 74.7115 252.45 74.9466 252.345C75.1852 252.236 75.3846 252.081 75.5448 251.88C75.7083 251.678 75.8225 251.436 75.8873 251.154H77.3749C77.3204 251.661 77.1551 252.115 76.879 252.513C76.603 252.912 76.2332 253.226 75.7697 253.454C75.3096 253.682 74.7694 253.797 74.1491 253.797ZM81.2947 253.812C80.7971 253.812 80.3472 253.72 79.945 253.536C79.5429 253.348 79.2242 253.077 78.9891 252.723C78.7573 252.369 78.6414 251.934 78.6414 251.419C78.6414 250.976 78.7266 250.612 78.897 250.325C79.0675 250.039 79.2975 249.813 79.5872 249.646C79.8769 249.479 80.2006 249.352 80.5585 249.267C80.9164 249.182 81.281 249.117 81.6525 249.073C82.1228 249.018 82.5045 248.974 82.7976 248.94C83.0907 248.903 83.3037 248.843 83.4366 248.761C83.5696 248.679 83.636 248.546 83.636 248.362V248.327C83.636 247.88 83.5099 247.534 83.2577 247.289C83.0089 247.043 82.6374 246.921 82.1433 246.921C81.6286 246.921 81.2231 247.035 80.9266 247.263C80.6335 247.488 80.4307 247.739 80.3182 248.015L78.8817 247.688C79.0521 247.21 79.3009 246.825 79.6281 246.532C79.9587 246.236 80.3387 246.021 80.7681 245.888C81.1975 245.752 81.6491 245.684 82.1228 245.684C82.4364 245.684 82.7687 245.721 83.1197 245.796C83.4741 245.868 83.8047 246.001 84.1115 246.195C84.4216 246.389 84.6755 246.667 84.8732 247.028C85.0708 247.386 85.1697 247.851 85.1697 248.424V253.638H83.6769V252.565H83.6156C83.5167 252.762 83.3685 252.956 83.1708 253.147C82.9731 253.338 82.7192 253.497 82.4091 253.623C82.099 253.749 81.7275 253.812 81.2947 253.812ZM81.6269 252.585C82.0495 252.585 82.4108 252.502 82.7107 252.335C83.014 252.168 83.2441 251.949 83.4009 251.68C83.561 251.408 83.6411 251.116 83.6411 250.806V249.794C83.5866 249.848 83.481 249.899 83.3242 249.947C83.1708 249.991 82.9953 250.031 82.7976 250.065C82.6 250.095 82.4074 250.124 82.22 250.152C82.0325 250.175 81.8757 250.196 81.7496 250.213C81.4531 250.25 81.1822 250.314 80.9368 250.402C80.6948 250.491 80.5006 250.619 80.354 250.786C80.2109 250.949 80.1393 251.167 80.1393 251.44C80.1393 251.818 80.279 252.104 80.5585 252.299C80.838 252.49 81.1941 252.585 81.6269 252.585ZM93.0897 247.703L91.7043 247.948C91.6463 247.771 91.5543 247.602 91.4282 247.442C91.3055 247.282 91.1385 247.151 90.9272 247.049C90.7159 246.946 90.4518 246.895 90.1349 246.895C89.702 246.895 89.3408 246.992 89.0511 247.187C88.7614 247.377 88.6165 247.625 88.6165 247.928C88.6165 248.19 88.7137 248.402 88.9079 248.562C89.1022 248.722 89.4157 248.853 89.8486 248.955L91.0959 249.242C91.8185 249.409 92.3569 249.666 92.7114 250.014C93.0658 250.361 93.243 250.813 93.243 251.368C93.243 251.839 93.1067 252.258 92.8341 252.626C92.5648 252.991 92.1882 253.277 91.7043 253.485C91.2237 253.693 90.6665 253.797 90.0326 253.797C89.1533 253.797 88.4359 253.609 87.8804 253.234C87.3249 252.856 86.9841 252.319 86.858 251.624L88.3354 251.399C88.4274 251.784 88.6165 252.075 88.9028 252.273C89.1891 252.467 89.5623 252.565 90.0224 252.565C90.5234 252.565 90.9238 252.461 91.2237 252.253C91.5237 252.041 91.6736 251.784 91.6736 251.481C91.6736 251.235 91.5816 251.029 91.3976 250.862C91.2169 250.695 90.9392 250.569 90.5643 250.484L89.2351 250.193C88.5024 250.026 87.9605 249.76 87.6094 249.395C87.2618 249.03 87.088 248.569 87.088 248.01C87.088 247.546 87.2175 247.141 87.4765 246.793C87.7355 246.445 88.0934 246.174 88.5501 245.98C89.0068 245.782 89.5299 245.684 90.1195 245.684C90.9681 245.684 91.6361 245.868 92.1235 246.236C92.6108 246.6 92.9329 247.089 93.0897 247.703ZM98.5891 245.786V247.013H94.3V245.786H98.5891ZM95.4502 243.905H96.9788V251.333C96.9788 251.629 97.0231 251.852 97.1117 252.002C97.2003 252.149 97.3145 252.249 97.4542 252.304C97.5973 252.355 97.7524 252.381 97.9194 252.381C98.0421 252.381 98.1494 252.372 98.2415 252.355C98.3335 252.338 98.4051 252.324 98.4562 252.314L98.7322 253.577C98.6436 253.611 98.5175 253.645 98.3539 253.679C98.1903 253.717 97.9859 253.737 97.7405 253.74C97.3383 253.747 96.9634 253.676 96.6158 253.526C96.2682 253.376 95.987 253.144 95.7723 252.83C95.5576 252.517 95.4502 252.123 95.4502 251.649V243.905Z" fill="#272727"/>
<path d="M23.3933 273.031C19.247 273.031 15.8955 276.382 15.8955 280.529C15.8955 284.675 19.247 288.027 23.3933 288.027C27.5396 288.027 30.8912 284.675 30.8912 280.529C30.8912 276.382 27.5396 273.031 23.3933 273.031ZM23.3933 286.527C20.0793 286.527 17.3951 283.843 17.3951 280.529C17.3951 277.215 20.0793 274.531 23.3933 274.531C26.7074 274.531 29.3916 277.215 29.3916 280.529C29.3916 283.843 26.7074 286.527 23.3933 286.527Z" fill="#34A853"/>
<path d="M46.4489 278.309C46.3944 277.825 46.1694 277.451 45.7741 277.185C45.3788 276.915 44.8812 276.781 44.2813 276.781C43.8519 276.781 43.4804 276.849 43.1669 276.985C42.8533 277.118 42.6097 277.302 42.4359 277.537C42.2654 277.769 42.1802 278.033 42.1802 278.33C42.1802 278.579 42.2382 278.793 42.3541 278.974C42.4733 279.155 42.6284 279.306 42.8193 279.429C43.0135 279.548 43.2214 279.649 43.4429 279.731C43.6645 279.809 43.8775 279.874 44.082 279.925L45.1044 280.191C45.4384 280.272 45.7809 280.383 46.1319 280.523C46.483 280.663 46.8085 280.847 47.1084 281.075C47.4083 281.303 47.6503 281.586 47.8343 281.924C48.0217 282.261 48.1155 282.665 48.1155 283.135C48.1155 283.728 47.9621 284.255 47.6554 284.715C47.352 285.175 46.9107 285.538 46.3313 285.804C45.7553 286.07 45.0584 286.203 44.2404 286.203C43.4566 286.203 42.7784 286.078 42.2058 285.829C41.6332 285.581 41.1851 285.228 40.8613 284.771C40.5375 284.311 40.3586 283.766 40.3245 283.135H41.9093C41.94 283.514 42.0627 283.829 42.2774 284.081C42.4955 284.33 42.7733 284.516 43.1107 284.638C43.4515 284.758 43.8247 284.817 44.2302 284.817C44.6767 284.817 45.0737 284.747 45.4214 284.608C45.7724 284.464 46.0484 284.267 46.2495 284.015C46.4506 283.759 46.5511 283.461 46.5511 283.12C46.5511 282.81 46.4625 282.556 46.2853 282.358C46.1115 282.161 45.8746 281.997 45.5747 281.867C45.2782 281.738 44.9425 281.624 44.5676 281.525L43.3305 281.188C42.4921 280.959 41.8275 280.624 41.3367 280.18C40.8494 279.737 40.6057 279.151 40.6057 278.422C40.6057 277.819 40.7693 277.292 41.0965 276.842C41.4236 276.392 41.8667 276.043 42.4256 275.794C42.9846 275.542 43.6151 275.416 44.3171 275.416C45.026 275.416 45.6514 275.54 46.1933 275.789C46.7386 276.038 47.168 276.38 47.4816 276.817C47.7951 277.249 47.9587 277.747 47.9723 278.309H46.4489ZM50.0031 286.029V275.559H53.8372C54.5802 275.559 55.1954 275.682 55.6827 275.927C56.1701 276.169 56.5348 276.498 56.7767 276.914C57.0187 277.326 57.1397 277.791 57.1397 278.309C57.1397 278.746 57.0596 279.114 56.8994 279.414C56.7392 279.71 56.5245 279.949 56.2553 280.129C55.9895 280.307 55.6964 280.436 55.376 280.518V280.62C55.7236 280.637 56.0627 280.75 56.3933 280.958C56.7273 281.162 57.0034 281.453 57.2215 281.832C57.4396 282.21 57.5487 282.67 57.5487 283.212C57.5487 283.747 57.4226 284.228 57.1704 284.654C56.9216 285.076 56.5365 285.412 56.015 285.661C55.4936 285.906 54.8273 286.029 54.0162 286.029H50.0031ZM51.5828 284.674H53.8628C54.6194 284.674 55.1613 284.527 55.4885 284.234C55.8157 283.941 55.9792 283.575 55.9792 283.135C55.9792 282.805 55.8957 282.501 55.7287 282.225C55.5617 281.949 55.3232 281.729 55.013 281.566C54.7063 281.402 54.3416 281.32 53.919 281.32H51.5828V284.674ZM51.5828 280.088H53.6992C54.0537 280.088 54.3723 280.02 54.6552 279.884C54.9415 279.748 55.1681 279.557 55.3351 279.311C55.5055 279.063 55.5907 278.77 55.5907 278.432C55.5907 277.999 55.4391 277.636 55.1357 277.343C54.8324 277.05 54.3672 276.904 53.7401 276.904H51.5828V280.088ZM58.906 276.919V275.559H67.0087V276.919H63.7421V286.029H62.1675V276.919H58.906ZM68.6766 286.029V278.176H70.2051V286.029H68.6766ZM69.4485 276.965C69.1827 276.965 68.9543 276.876 68.7635 276.699C68.576 276.518 68.4823 276.304 68.4823 276.055C68.4823 275.803 68.576 275.588 68.7635 275.411C68.9543 275.23 69.1827 275.14 69.4485 275.14C69.7143 275.14 69.941 275.23 70.1284 275.411C70.3193 275.588 70.4147 275.803 70.4147 276.055C70.4147 276.304 70.3193 276.518 70.1284 276.699C69.941 276.876 69.7143 276.965 69.4485 276.965ZM77.0784 286.029H75.4016L79.1693 275.559H80.9943L84.762 286.029H83.0852L80.1252 277.461H80.0435L77.0784 286.029ZM77.3596 281.929H82.7989V283.258H77.3596V281.929ZM87.6797 275.559V286.029H86.1512V275.559H87.6797ZM89.7361 286.029V278.176H91.2646V286.029H89.7361ZM90.508 276.965C90.2422 276.965 90.0139 276.876 89.823 276.699C89.6356 276.518 89.5418 276.304 89.5418 276.055C89.5418 275.803 89.6356 275.588 89.823 275.411C90.0139 275.23 90.2422 275.14 90.508 275.14C90.7739 275.14 91.0005 275.23 91.188 275.411C91.3788 275.588 91.4742 275.803 91.4742 276.055C91.4742 276.304 91.3788 276.518 91.188 276.699C91.0005 276.876 90.7739 276.965 90.508 276.965ZM96.6132 289.137C95.9896 289.137 95.4528 289.055 95.0029 288.892C94.5564 288.728 94.1918 288.512 93.9089 288.242C93.626 287.973 93.4147 287.678 93.275 287.358L94.5888 286.816C94.6808 286.966 94.8035 287.124 94.9569 287.291C95.1137 287.462 95.325 287.607 95.5908 287.726C95.86 287.845 96.206 287.905 96.6286 287.905C97.208 287.905 97.6868 287.763 98.0651 287.481C98.4434 287.201 98.6325 286.755 98.6325 286.141V284.597H98.5354C98.4434 284.764 98.3105 284.95 98.1367 285.155C97.9663 285.359 97.7311 285.536 97.4312 285.686C97.1313 285.836 96.741 285.911 96.2605 285.911C95.6402 285.911 95.0813 285.766 94.5837 285.477C94.0895 285.184 93.6976 284.752 93.4079 284.183C93.1216 283.611 92.9785 282.907 92.9785 282.072C92.9785 281.237 93.1199 280.521 93.4028 279.925C93.6891 279.328 94.081 278.872 94.5786 278.555C95.0762 278.234 95.6402 278.074 96.2707 278.074C96.7581 278.074 97.1517 278.156 97.4516 278.32C97.7515 278.48 97.985 278.667 98.152 278.882C98.3224 279.097 98.4536 279.286 98.5456 279.449H98.6581V278.176H100.156V286.203C100.156 286.877 99.9992 287.431 99.6856 287.864C99.3721 288.297 98.9478 288.617 98.4127 288.825C97.8811 289.033 97.2812 289.137 96.6132 289.137ZM96.5979 284.643C97.0375 284.643 97.409 284.541 97.7124 284.337C98.0191 284.129 98.2508 283.832 98.4076 283.447C98.5678 283.059 98.6479 282.593 98.6479 282.052C98.6479 281.523 98.5695 281.058 98.4127 280.656C98.2559 280.254 98.0259 279.94 97.7226 279.715C97.4193 279.487 97.0444 279.373 96.5979 279.373C96.1378 279.373 95.7544 279.492 95.4477 279.731C95.1409 279.966 94.9092 280.286 94.7524 280.692C94.599 281.097 94.5224 281.551 94.5224 282.052C94.5224 282.566 94.6008 283.018 94.7575 283.406C94.9143 283.795 95.146 284.098 95.4528 284.316C95.7629 284.534 96.1446 284.643 96.5979 284.643ZM103.734 281.366V286.029H102.206V278.176H103.673V279.455H103.77C103.951 279.039 104.234 278.705 104.619 278.453C105.007 278.2 105.496 278.074 106.086 278.074C106.621 278.074 107.09 278.187 107.492 278.412C107.894 278.633 108.206 278.964 108.427 279.403C108.649 279.843 108.76 280.387 108.76 281.034V286.029H107.231V281.218C107.231 280.649 107.083 280.204 106.786 279.884C106.49 279.56 106.083 279.398 105.565 279.398C105.21 279.398 104.895 279.475 104.619 279.628C104.346 279.782 104.13 280.007 103.97 280.303C103.813 280.596 103.734 280.951 103.734 281.366ZM114.194 286.187C113.42 286.187 112.754 286.022 112.195 285.691C111.64 285.357 111.21 284.889 110.907 284.286C110.607 283.679 110.457 282.968 110.457 282.154C110.457 281.349 110.607 280.641 110.907 280.027C111.21 279.414 111.633 278.935 112.175 278.591C112.72 278.246 113.357 278.074 114.087 278.074C114.53 278.074 114.959 278.148 115.375 278.294C115.791 278.441 116.164 278.671 116.494 278.984C116.825 279.298 117.086 279.705 117.277 280.206C117.467 280.704 117.563 281.309 117.563 282.021V282.563H111.321V281.418H116.065C116.065 281.015 115.983 280.659 115.82 280.349C115.656 280.036 115.426 279.789 115.129 279.608C114.836 279.427 114.492 279.337 114.097 279.337C113.667 279.337 113.293 279.443 112.972 279.654C112.655 279.862 112.41 280.134 112.236 280.472C112.066 280.806 111.98 281.169 111.98 281.561V282.455C111.98 282.98 112.072 283.427 112.256 283.795C112.444 284.163 112.705 284.444 113.039 284.638C113.373 284.829 113.763 284.925 114.209 284.925C114.499 284.925 114.763 284.884 115.002 284.802C115.24 284.717 115.446 284.591 115.62 284.424C115.794 284.257 115.927 284.05 116.019 283.805L117.466 284.066C117.35 284.492 117.142 284.865 116.842 285.185C116.546 285.502 116.172 285.749 115.722 285.927C115.276 286.1 114.767 286.187 114.194 286.187ZM122.198 286.182C121.564 286.182 120.999 286.02 120.501 285.696C120.007 285.369 119.618 284.904 119.336 284.301C119.056 283.694 118.916 282.967 118.916 282.118C118.916 281.269 119.058 280.543 119.341 279.94C119.627 279.337 120.019 278.875 120.516 278.555C121.014 278.234 121.578 278.074 122.209 278.074C122.696 278.074 123.088 278.156 123.384 278.32C123.684 278.48 123.916 278.667 124.08 278.882C124.247 279.097 124.376 279.286 124.468 279.449H124.56V275.559H126.089V286.029H124.596V284.807H124.468C124.376 284.974 124.243 285.165 124.069 285.38C123.899 285.594 123.664 285.782 123.364 285.942C123.064 286.102 122.675 286.182 122.198 286.182ZM122.536 284.879C122.975 284.879 123.347 284.763 123.65 284.531C123.957 284.296 124.189 283.97 124.345 283.554C124.506 283.139 124.586 282.655 124.586 282.103C124.586 281.557 124.507 281.08 124.351 280.671C124.194 280.262 123.964 279.944 123.66 279.715C123.357 279.487 122.982 279.373 122.536 279.373C122.076 279.373 121.692 279.492 121.385 279.731C121.079 279.969 120.847 280.295 120.69 280.707C120.537 281.119 120.46 281.585 120.46 282.103C120.46 282.627 120.539 283.1 120.695 283.519C120.852 283.938 121.084 284.27 121.391 284.516C121.701 284.758 122.082 284.879 122.536 284.879Z" fill="#272727"/>
<path d="M23.3933 305.422C19.247 305.422 15.8955 308.773 15.8955 312.919C15.8955 317.066 19.247 320.417 23.3933 320.417C27.5396 320.417 30.8912 317.066 30.8912 312.919C30.8912 308.773 27.5396 305.422 23.3933 305.422ZM23.3933 318.918C20.0793 318.918 17.3951 316.233 17.3951 312.919C17.3951 309.605 20.0793 306.921 23.3933 306.921C26.7074 306.921 29.3916 309.605 29.3916 312.919C29.3916 316.233 26.7074 318.918 23.3933 318.918Z" fill="#F8AA1B"/>
<path d="M42.7886 318.419L39.8849 307.95H41.5463L43.5861 316.058H43.6832L45.8048 307.95H47.4509L49.5724 316.063H49.6696L51.7042 307.95H53.3708L50.4619 318.419H48.8721L46.6687 310.577H46.5869L44.3836 318.419H42.7886ZM54.6884 318.419V310.567H56.217V318.419H54.6884ZM55.4604 309.356C55.1945 309.356 54.9662 309.267 54.7753 309.09C54.5879 308.909 54.4942 308.694 54.4942 308.446C54.4942 308.193 54.5879 307.979 54.7753 307.801C54.9662 307.621 55.1945 307.531 55.4604 307.531C55.7262 307.531 55.9528 307.621 56.1403 307.801C56.3311 307.979 56.4266 308.193 56.4266 308.446C56.4266 308.694 56.3311 308.909 56.1403 309.09C55.9528 309.267 55.7262 309.356 55.4604 309.356ZM61.9387 310.567V311.794H57.6496V310.567H61.9387ZM58.7999 308.686H60.3284V316.114C60.3284 316.41 60.3727 316.634 60.4613 316.784C60.5499 316.93 60.6641 317.031 60.8038 317.085C60.947 317.136 61.102 317.162 61.269 317.162C61.3917 317.162 61.4991 317.153 61.5911 317.136C61.6831 317.119 61.7547 317.106 61.8058 317.095L62.0819 318.358C61.9933 318.392 61.8672 318.426 61.7036 318.46C61.54 318.498 61.3355 318.518 61.0901 318.522C60.688 318.528 60.3131 318.457 59.9654 318.307C59.6178 318.157 59.3367 317.925 59.1219 317.612C58.9072 317.298 58.7999 316.904 58.7999 316.431V308.686ZM65.3268 313.757V318.419H63.7983V307.95H65.3064V311.845H65.4035C65.5875 311.423 65.8687 311.087 66.247 310.838C66.6253 310.589 67.1195 310.465 67.7295 310.465C68.268 310.465 68.7383 310.576 69.1405 310.797C69.5461 311.019 69.8596 311.349 70.0811 311.789C70.3061 312.225 70.4185 312.77 70.4185 313.425V318.419H68.89V313.609C68.89 313.033 68.7417 312.586 68.4452 312.269C68.1487 311.949 67.7364 311.789 67.2081 311.789C66.8468 311.789 66.5231 311.866 66.2368 312.019C65.9539 312.172 65.7307 312.397 65.5671 312.694C65.4069 312.987 65.3268 313.341 65.3268 313.757ZM77.9705 307.95V318.419H76.3908V307.95H77.9705ZM81.6768 313.757V318.419H80.1483V310.567H81.6154V311.845H81.7126C81.8932 311.429 82.1761 311.095 82.5612 310.843C82.9497 310.591 83.4388 310.465 84.0284 310.465C84.5635 310.465 85.0321 310.577 85.4342 310.802C85.8364 311.024 86.1482 311.354 86.3698 311.794C86.5913 312.234 86.702 312.777 86.702 313.425V318.419H85.1735V313.609C85.1735 313.04 85.0253 312.595 84.7287 312.275C84.4322 311.951 84.025 311.789 83.5069 311.789C83.1525 311.789 82.8372 311.866 82.5612 312.019C82.2885 312.172 82.0721 312.397 81.9119 312.694C81.7552 312.987 81.6768 313.341 81.6768 313.757ZM88.752 318.419V310.567H90.2806V318.419H88.752ZM89.524 309.356C89.2581 309.356 89.0298 309.267 88.8389 309.09C88.6515 308.909 88.5578 308.694 88.5578 308.446C88.5578 308.193 88.6515 307.979 88.8389 307.801C89.0298 307.621 89.2581 307.531 89.524 307.531C89.7898 307.531 90.0164 307.621 90.2039 307.801C90.3947 307.979 90.4902 308.193 90.4902 308.446C90.4902 308.694 90.3947 308.909 90.2039 309.09C90.0164 309.267 89.7898 309.356 89.524 309.356ZM96.0023 310.567V311.794H91.7132V310.567H96.0023ZM92.8635 308.686H94.392V316.114C94.392 316.41 94.4363 316.634 94.5249 316.784C94.6135 316.93 94.7277 317.031 94.8674 317.085C95.0106 317.136 95.1656 317.162 95.3326 317.162C95.4553 317.162 95.5627 317.153 95.6547 317.136C95.7467 317.119 95.8183 317.106 95.8694 317.095L96.1455 318.358C96.0569 318.392 95.9308 318.426 95.7672 318.46C95.6036 318.498 95.3991 318.518 95.1537 318.522C94.7516 318.528 94.3767 318.457 94.029 318.307C93.6814 318.157 93.4002 317.925 93.1855 317.612C92.9708 317.298 92.8635 316.904 92.8635 316.431V308.686ZM97.6932 318.419V310.567H99.2217V318.419H97.6932ZM98.4651 309.356C98.1993 309.356 97.9709 309.267 97.7801 309.09C97.5926 308.909 97.4989 308.694 97.4989 308.446C97.4989 308.193 97.5926 307.979 97.7801 307.801C97.9709 307.621 98.1993 307.531 98.4651 307.531C98.731 307.531 98.9576 307.621 99.145 307.801C99.3359 307.979 99.4313 308.193 99.4313 308.446C99.4313 308.694 99.3359 308.909 99.145 309.09C98.9576 309.267 98.731 309.356 98.4651 309.356ZM103.563 318.593C103.066 318.593 102.616 318.501 102.214 318.317C101.811 318.13 101.493 317.859 101.258 317.504C101.026 317.15 100.91 316.715 100.91 316.201C100.91 315.758 100.995 315.393 101.166 315.107C101.336 314.82 101.566 314.594 101.856 314.427C102.145 314.26 102.469 314.134 102.827 314.049C103.185 313.963 103.55 313.899 103.921 313.854C104.391 313.8 104.773 313.755 105.066 313.721C105.359 313.684 105.572 313.624 105.705 313.542C105.838 313.461 105.905 313.328 105.905 313.144V313.108C105.905 312.661 105.778 312.315 105.526 312.07C105.277 311.825 104.906 311.702 104.412 311.702C103.897 311.702 103.492 311.816 103.195 312.045C102.902 312.269 102.699 312.52 102.587 312.796L101.15 312.469C101.321 311.992 101.569 311.607 101.897 311.314C102.227 311.017 102.607 310.802 103.037 310.669C103.466 310.533 103.918 310.465 104.391 310.465C104.705 310.465 105.037 310.502 105.388 310.577C105.743 310.649 106.073 310.782 106.38 310.976C106.69 311.17 106.944 311.448 107.142 311.809C107.339 312.167 107.438 312.632 107.438 313.205V318.419H105.945V317.346H105.884C105.785 317.544 105.637 317.738 105.439 317.929C105.242 318.119 104.988 318.278 104.678 318.404C104.368 318.53 103.996 318.593 103.563 318.593ZM103.896 317.366C104.318 317.366 104.679 317.283 104.979 317.116C105.283 316.949 105.513 316.731 105.669 316.461C105.83 316.189 105.91 315.897 105.91 315.587V314.575C105.855 314.63 105.75 314.681 105.593 314.728C105.439 314.773 105.264 314.812 105.066 314.846C104.869 314.877 104.676 314.906 104.489 314.933C104.301 314.957 104.144 314.977 104.018 314.994C103.722 315.032 103.451 315.095 103.205 315.183C102.963 315.272 102.769 315.4 102.623 315.567C102.479 315.73 102.408 315.949 102.408 316.221C102.408 316.599 102.548 316.886 102.827 317.08C103.107 317.271 103.463 317.366 103.896 317.366ZM113.14 310.567V311.794H108.85V310.567H113.14ZM110.001 308.686H111.529V316.114C111.529 316.41 111.574 316.634 111.662 316.784C111.751 316.93 111.865 317.031 112.005 317.085C112.148 317.136 112.303 317.162 112.47 317.162C112.593 317.162 112.7 317.153 112.792 317.136C112.884 317.119 112.956 317.106 113.007 317.095L113.283 318.358C113.194 318.392 113.068 318.426 112.904 318.46C112.741 318.498 112.536 318.518 112.291 318.522C111.889 318.528 111.514 318.457 111.166 318.307C110.819 318.157 110.537 317.925 110.323 317.612C110.108 317.298 110.001 316.904 110.001 316.431V308.686ZM114.83 318.419V310.567H116.359V318.419H114.83ZM115.602 309.356C115.337 309.356 115.108 309.267 114.917 309.09C114.73 308.909 114.636 308.694 114.636 308.446C114.636 308.193 114.73 307.979 114.917 307.801C115.108 307.621 115.337 307.531 115.602 307.531C115.868 307.531 116.095 307.621 116.282 307.801C116.473 307.979 116.569 308.193 116.569 308.446C116.569 308.694 116.473 308.909 116.282 309.09C116.095 309.267 115.868 309.356 115.602 309.356ZM125.133 310.567L122.285 318.419H120.649L117.797 310.567H119.438L121.426 316.61H121.508L123.492 310.567H125.133ZM129.686 318.578C128.913 318.578 128.246 318.413 127.687 318.082C127.132 317.748 126.703 317.279 126.399 316.676C126.099 316.07 125.949 315.359 125.949 314.544C125.949 313.74 126.099 313.031 126.399 312.418C126.703 311.804 127.125 311.325 127.667 310.981C128.212 310.637 128.85 310.465 129.579 310.465C130.022 310.465 130.451 310.538 130.867 310.685C131.283 310.831 131.656 311.061 131.987 311.375C132.317 311.688 132.578 312.096 132.769 312.597C132.96 313.094 133.055 313.699 133.055 314.411V314.953H126.813V313.808H131.557C131.557 313.406 131.476 313.05 131.312 312.74C131.148 312.426 130.918 312.179 130.622 311.999C130.329 311.818 129.985 311.728 129.589 311.728C129.16 311.728 128.785 311.833 128.465 312.045C128.148 312.252 127.902 312.525 127.728 312.862C127.558 313.196 127.473 313.559 127.473 313.951V314.846C127.473 315.371 127.565 315.817 127.749 316.185C127.936 316.553 128.197 316.835 128.531 317.029C128.865 317.22 129.255 317.315 129.702 317.315C129.991 317.315 130.256 317.274 130.494 317.192C130.733 317.107 130.939 316.981 131.113 316.814C131.286 316.647 131.419 316.441 131.511 316.196L132.958 316.456C132.842 316.882 132.634 317.256 132.334 317.576C132.038 317.893 131.665 318.14 131.215 318.317C130.768 318.491 130.259 318.578 129.686 318.578ZM140.635 312.484L139.25 312.73C139.192 312.552 139.1 312.384 138.974 312.223C138.851 312.063 138.684 311.932 138.473 311.83C138.262 311.728 137.997 311.676 137.68 311.676C137.248 311.676 136.886 311.774 136.597 311.968C136.307 312.159 136.162 312.406 136.162 312.709C136.162 312.972 136.259 313.183 136.454 313.343C136.648 313.503 136.961 313.634 137.394 313.737L138.642 314.023C139.364 314.19 139.903 314.447 140.257 314.795C140.611 315.143 140.789 315.594 140.789 316.15C140.789 316.62 140.652 317.039 140.38 317.407C140.11 317.772 139.734 318.058 139.25 318.266C138.769 318.474 138.212 318.578 137.578 318.578C136.699 318.578 135.982 318.39 135.426 318.016C134.871 317.637 134.53 317.1 134.404 316.405L135.881 316.18C135.973 316.565 136.162 316.857 136.448 317.054C136.735 317.249 137.108 317.346 137.568 317.346C138.069 317.346 138.469 317.242 138.769 317.034C139.069 316.823 139.219 316.565 139.219 316.262C139.219 316.017 139.127 315.81 138.943 315.644C138.763 315.477 138.485 315.35 138.11 315.265L136.781 314.974C136.048 314.807 135.506 314.541 135.155 314.176C134.807 313.812 134.634 313.35 134.634 312.791C134.634 312.327 134.763 311.922 135.022 311.574C135.281 311.227 135.639 310.956 136.096 310.761C136.552 310.564 137.076 310.465 137.665 310.465C138.514 310.465 139.182 310.649 139.669 311.017C140.156 311.382 140.479 311.871 140.635 312.484Z" fill="#272727"/>
<circle cx="23.3932" cy="345.31" r="7.19792" fill="#2B6ACB" fill-opacity="0.5"/>
<path d="M47.8241 343.648C47.7252 343.338 47.5923 343.06 47.4253 342.815C47.2617 342.566 47.0658 342.355 46.8374 342.181C46.6091 342.003 46.3484 341.869 46.0553 341.777C45.7656 341.685 45.4469 341.639 45.0993 341.639C44.5097 341.639 43.978 341.79 43.5043 342.094C43.0306 342.397 42.6557 342.842 42.3796 343.428C42.107 344.011 41.9706 344.725 41.9706 345.57C41.9706 346.419 42.1087 347.136 42.3847 347.722C42.6608 348.308 43.0391 348.753 43.5196 349.057C44.0002 349.36 44.5472 349.512 45.1606 349.512C45.7298 349.512 46.2257 349.396 46.6483 349.164C47.0743 348.932 47.4032 348.605 47.6349 348.182C47.8701 347.756 47.9877 347.255 47.9877 346.679L48.3966 346.756H45.4009V345.452H49.5162V346.644C49.5162 347.523 49.3287 348.286 48.9539 348.934C48.5824 349.578 48.0677 350.076 47.41 350.427C46.7556 350.778 46.0058 350.953 45.1606 350.953C44.2132 350.953 43.3816 350.735 42.6659 350.299C41.9536 349.863 41.3981 349.244 40.9993 348.443C40.6006 347.639 40.4012 346.685 40.4012 345.58C40.4012 344.745 40.5171 343.996 40.7488 343.331C40.9806 342.666 41.3061 342.102 41.7253 341.639C42.1479 341.172 42.6437 340.816 43.2129 340.57C43.7855 340.322 44.4108 340.197 45.0891 340.197C45.6548 340.197 46.1814 340.281 46.6687 340.448C47.1595 340.615 47.5957 340.852 47.9774 341.158C48.3625 341.465 48.6812 341.83 48.9334 342.252C49.1856 342.671 49.356 343.137 49.4446 343.648H47.8241ZM53.6839 350.984C53.1863 350.984 52.7364 350.892 52.3343 350.708C51.9321 350.52 51.6135 350.249 51.3783 349.895C51.1465 349.541 51.0307 349.106 51.0307 348.591C51.0307 348.148 51.1159 347.784 51.2863 347.497C51.4567 347.211 51.6867 346.984 51.9764 346.817C52.2661 346.65 52.5899 346.524 52.9477 346.439C53.3056 346.354 53.6702 346.289 54.0417 346.245C54.512 346.19 54.8938 346.146 55.1869 346.112C55.48 346.074 55.693 346.015 55.8259 345.933C55.9588 345.851 56.0252 345.718 56.0252 345.534V345.498C56.0252 345.052 55.8991 344.706 55.6469 344.461C55.3982 344.215 55.0267 344.093 54.5325 344.093C54.0179 344.093 53.6123 344.207 53.3158 344.435C53.0227 344.66 52.8199 344.911 52.7075 345.187L51.2709 344.859C51.4413 344.382 51.6901 343.997 52.0173 343.704C52.3479 343.408 52.7279 343.193 53.1573 343.06C53.5867 342.924 54.0383 342.856 54.512 342.856C54.8256 342.856 55.1579 342.893 55.5089 342.968C55.8634 343.04 56.194 343.172 56.5007 343.367C56.8108 343.561 57.0647 343.839 57.2624 344.2C57.4601 344.558 57.5589 345.023 57.5589 345.596V350.81H56.0661V349.736H56.0048C55.906 349.934 55.7577 350.128 55.56 350.319C55.3624 350.51 55.1085 350.669 54.7983 350.795C54.4882 350.921 54.1167 350.984 53.6839 350.984ZM54.0162 349.757C54.4388 349.757 54.8 349.673 55.0999 349.506C55.4033 349.339 55.6333 349.121 55.7901 348.852C55.9503 348.579 56.0304 348.288 56.0304 347.978V346.966C55.9758 347.02 55.8702 347.071 55.7134 347.119C55.56 347.163 55.3845 347.203 55.1869 347.237C54.9892 347.267 54.7966 347.296 54.6092 347.324C54.4217 347.347 54.265 347.368 54.1389 347.385C53.8424 347.422 53.5714 347.485 53.326 347.574C53.0841 347.663 52.8898 347.79 52.7432 347.957C52.6001 348.121 52.5285 348.339 52.5285 348.612C52.5285 348.99 52.6683 349.276 52.9477 349.471C53.2272 349.661 53.5833 349.757 54.0162 349.757ZM59.5948 353.755V342.958H61.0876V344.231H61.2154C61.304 344.067 61.4318 343.878 61.5988 343.663C61.7658 343.449 61.9975 343.261 62.294 343.101C62.5905 342.937 62.9825 342.856 63.4698 342.856C64.1037 342.856 64.6695 343.016 65.1671 343.336C65.6647 343.656 66.0549 344.118 66.3378 344.721C66.624 345.325 66.7672 346.051 66.7672 346.899C66.7672 347.748 66.6257 348.475 66.3429 349.082C66.06 349.685 65.6715 350.151 65.1773 350.478C64.6831 350.802 64.1191 350.963 63.4852 350.963C63.008 350.963 62.6178 350.883 62.3145 350.723C62.0146 350.563 61.7794 350.375 61.609 350.161C61.4386 349.946 61.3074 349.755 61.2154 349.588H61.1234V353.755H59.5948ZM61.0927 346.884C61.0927 347.436 61.1728 347.92 61.3329 348.336C61.4931 348.752 61.7249 349.077 62.0282 349.312C62.3315 349.544 62.703 349.66 63.1427 349.66C63.5993 349.66 63.981 349.539 64.2878 349.297C64.5945 349.051 64.8263 348.719 64.983 348.3C65.1432 347.881 65.2233 347.409 65.2233 346.884C65.2233 346.366 65.1449 345.901 64.9881 345.488C64.8348 345.076 64.603 344.75 64.2929 344.512C63.9862 344.273 63.6027 344.154 63.1427 344.154C62.6996 344.154 62.3247 344.268 62.018 344.497C61.7147 344.725 61.4846 345.044 61.3278 345.452C61.1711 345.861 61.0927 346.339 61.0927 346.884ZM75.955 342.958V344.185H71.6659V342.958H75.955ZM72.8161 341.076H74.3447V348.504C74.3447 348.801 74.389 349.024 74.4776 349.174C74.5662 349.321 74.6804 349.421 74.8201 349.476C74.9632 349.527 75.1183 349.552 75.2853 349.552C75.408 349.552 75.5154 349.544 75.6074 349.527C75.6994 349.51 75.771 349.496 75.8221 349.486L76.0981 350.749C76.0095 350.783 75.8834 350.817 75.7198 350.851C75.5563 350.888 75.3518 350.909 75.1064 350.912C74.7042 350.919 74.3293 350.848 73.9817 350.698C73.6341 350.548 73.3529 350.316 73.1382 350.002C72.9235 349.689 72.8161 349.295 72.8161 348.821V341.076ZM80.8691 350.969C80.1329 350.969 79.4905 350.8 78.9418 350.462C78.3931 350.125 77.9671 349.653 77.6637 349.046C77.3604 348.44 77.2088 347.731 77.2088 346.92C77.2088 346.105 77.3604 345.393 77.6637 344.783C77.9671 344.173 78.3931 343.699 78.9418 343.362C79.4905 343.024 80.1329 342.856 80.8691 342.856C81.6052 342.856 82.2476 343.024 82.7963 343.362C83.3451 343.699 83.7711 344.173 84.0744 344.783C84.3777 345.393 84.5294 346.105 84.5294 346.92C84.5294 347.731 84.3777 348.44 84.0744 349.046C83.7711 349.653 83.3451 350.125 82.7963 350.462C82.2476 350.8 81.6052 350.969 80.8691 350.969ZM80.8742 349.685C81.3513 349.685 81.7467 349.559 82.0602 349.307C82.3737 349.055 82.6055 348.719 82.7555 348.3C82.9088 347.881 82.9855 347.419 82.9855 346.915C82.9855 346.414 82.9088 345.953 82.7555 345.534C82.6055 345.112 82.3737 344.773 82.0602 344.517C81.7467 344.261 81.3513 344.134 80.8742 344.134C80.3936 344.134 79.9949 344.261 79.6779 344.517C79.3644 344.773 79.1309 345.112 78.9776 345.534C78.8276 345.953 78.7526 346.414 78.7526 346.915C78.7526 347.419 78.8276 347.881 78.9776 348.3C79.1309 348.719 79.3644 349.055 79.6779 349.307C79.9949 349.559 80.3936 349.685 80.8742 349.685ZM89.6518 341.7V340.34H97.7545V341.7H94.4879V350.81H92.9133V341.7H89.6518ZM100.639 350.984C100.141 350.984 99.6916 350.892 99.2895 350.708C98.8873 350.52 98.5686 350.249 98.3335 349.895C98.1017 349.541 97.9859 349.106 97.9859 348.591C97.9859 348.148 98.0711 347.784 98.2415 347.497C98.4119 347.211 98.6419 346.984 98.9316 346.817C99.2213 346.65 99.5451 346.524 99.9029 346.439C100.261 346.354 100.625 346.289 100.997 346.245C101.467 346.19 101.849 346.146 102.142 346.112C102.435 346.074 102.648 346.015 102.781 345.933C102.914 345.851 102.98 345.718 102.98 345.534V345.498C102.98 345.052 102.854 344.706 102.602 344.461C102.353 344.215 101.982 344.093 101.488 344.093C100.973 344.093 100.567 344.207 100.271 344.435C99.9779 344.66 99.7751 344.911 99.6626 345.187L98.2261 344.859C98.3965 344.382 98.6453 343.997 98.9725 343.704C99.3031 343.408 99.6831 343.193 100.113 343.06C100.542 342.924 100.994 342.856 101.467 342.856C101.781 342.856 102.113 342.893 102.464 342.968C102.819 343.04 103.149 343.172 103.456 343.367C103.766 343.561 104.02 343.839 104.218 344.2C104.415 344.558 104.514 345.023 104.514 345.596V350.81H103.021V349.736H102.96C102.861 349.934 102.713 350.128 102.515 350.319C102.318 350.51 102.064 350.669 101.754 350.795C101.443 350.921 101.072 350.984 100.639 350.984ZM100.971 349.757C101.394 349.757 101.755 349.673 102.055 349.506C102.358 349.339 102.588 349.121 102.745 348.852C102.905 348.579 102.986 348.288 102.986 347.978V346.966C102.931 347.02 102.825 347.071 102.669 347.119C102.515 347.163 102.34 347.203 102.142 347.237C101.944 347.267 101.752 347.296 101.564 347.324C101.377 347.347 101.22 347.368 101.094 347.385C100.798 347.422 100.527 347.485 100.281 347.574C100.039 347.663 99.845 347.79 99.6984 347.957C99.5553 348.121 99.4837 348.339 99.4837 348.612C99.4837 348.99 99.6234 349.276 99.9029 349.471C100.182 349.661 100.539 349.757 100.971 349.757ZM106.55 350.81V342.958H108.027V344.205H108.109C108.252 343.783 108.505 343.45 108.866 343.208C109.23 342.963 109.643 342.84 110.103 342.84C110.198 342.84 110.311 342.844 110.44 342.85C110.573 342.857 110.677 342.866 110.752 342.876V344.338C110.691 344.321 110.582 344.302 110.425 344.282C110.268 344.258 110.111 344.246 109.955 344.246C109.593 344.246 109.271 344.323 108.988 344.476C108.709 344.626 108.488 344.836 108.324 345.105C108.16 345.371 108.079 345.674 108.079 346.015V350.81H106.55ZM115.086 353.918C114.462 353.918 113.926 353.836 113.476 353.673C113.029 353.509 112.665 353.293 112.382 353.024C112.099 352.754 111.888 352.46 111.748 352.139L113.062 351.597C113.154 351.747 113.276 351.906 113.43 352.073C113.586 352.243 113.798 352.388 114.064 352.507C114.333 352.627 114.679 352.686 115.101 352.686C115.681 352.686 116.16 352.545 116.538 352.262C116.916 351.982 117.105 351.536 117.105 350.922V349.379H117.008C116.916 349.546 116.783 349.731 116.609 349.936C116.439 350.14 116.204 350.318 115.904 350.468C115.604 350.617 115.214 350.692 114.733 350.692C114.113 350.692 113.554 350.548 113.056 350.258C112.562 349.965 112.17 349.534 111.881 348.965C111.594 348.392 111.451 347.688 111.451 346.853C111.451 346.018 111.593 345.303 111.876 344.706C112.162 344.11 112.554 343.653 113.051 343.336C113.549 343.016 114.113 342.856 114.744 342.856C115.231 342.856 115.625 342.937 115.924 343.101C116.224 343.261 116.458 343.449 116.625 343.663C116.795 343.878 116.926 344.067 117.018 344.231H117.131V342.958H118.629V350.984C118.629 351.659 118.472 352.212 118.158 352.645C117.845 353.078 117.421 353.398 116.886 353.606C116.354 353.814 115.754 353.918 115.086 353.918ZM115.071 349.425C115.51 349.425 115.882 349.322 116.185 349.118C116.492 348.91 116.724 348.614 116.88 348.228C117.041 347.84 117.121 347.375 117.121 346.833C117.121 346.305 117.042 345.839 116.886 345.437C116.729 345.035 116.499 344.721 116.195 344.497C115.892 344.268 115.517 344.154 115.071 344.154C114.611 344.154 114.227 344.273 113.92 344.512C113.614 344.747 113.382 345.067 113.225 345.473C113.072 345.878 112.995 346.332 112.995 346.833C112.995 347.347 113.074 347.799 113.23 348.187C113.387 348.576 113.619 348.879 113.926 349.097C114.236 349.316 114.617 349.425 115.071 349.425ZM124.063 350.969C123.289 350.969 122.623 350.803 122.064 350.473C121.509 350.139 121.079 349.67 120.776 349.067C120.476 348.46 120.326 347.75 120.326 346.935C120.326 346.131 120.476 345.422 120.776 344.808C121.079 344.195 121.502 343.716 122.044 343.372C122.589 343.028 123.226 342.856 123.956 342.856C124.399 342.856 124.828 342.929 125.244 343.075C125.66 343.222 126.033 343.452 126.363 343.765C126.694 344.079 126.955 344.486 127.146 344.987C127.336 345.485 127.432 346.09 127.432 346.802V347.344H121.19V346.199H125.934C125.934 345.797 125.852 345.441 125.689 345.13C125.525 344.817 125.295 344.57 124.999 344.389C124.705 344.209 124.361 344.118 123.966 344.118C123.536 344.118 123.162 344.224 122.841 344.435C122.524 344.643 122.279 344.916 122.105 345.253C121.935 345.587 121.849 345.95 121.849 346.342V347.237C121.849 347.761 121.941 348.208 122.125 348.576C122.313 348.944 122.574 349.225 122.908 349.42C123.242 349.61 123.632 349.706 124.078 349.706C124.368 349.706 124.632 349.665 124.871 349.583C125.109 349.498 125.315 349.372 125.489 349.205C125.663 349.038 125.796 348.832 125.888 348.586L127.335 348.847C127.219 349.273 127.011 349.646 126.711 349.967C126.415 350.283 126.041 350.531 125.592 350.708C125.145 350.882 124.636 350.969 124.063 350.969ZM132.793 342.958V344.185H128.504V342.958H132.793ZM129.654 341.076H131.183V348.504C131.183 348.801 131.227 349.024 131.316 349.174C131.404 349.321 131.519 349.421 131.658 349.476C131.802 349.527 131.957 349.552 132.124 349.552C132.246 349.552 132.354 349.544 132.446 349.527C132.538 349.51 132.609 349.496 132.66 349.486L132.936 350.749C132.848 350.783 132.722 350.817 132.558 350.851C132.395 350.888 132.19 350.909 131.945 350.912C131.542 350.919 131.168 350.848 130.82 350.698C130.472 350.548 130.191 350.316 129.976 350.002C129.762 349.689 129.654 349.295 129.654 348.821V341.076Z" fill="#272727"/>
</svg>
